<?xml version="1.0" encoding="utf-8"?>
<!-- Generator: Adobe Illustrator 25.0.0, SVG Export Plug-In . SVG Version: 6.00 Build 0)  -->
<svg version="1.1" xmlns="http://www.w3.org/2000/svg" xmlns:xlink="http://www.w3.org/1999/xlink" x="0px" y="0px"
	 viewBox="0 0 464.35 505.53" style="enable-background:new 0 0 464.35 505.53;" xml:space="preserve">
<style type="text/css">
	.st0{fill:#E50102;}
	.st1{fill:#FFFFFF;}
	.st2{fill:#F0F4C3;}
	.st3{fill:#FFC107;}
	.st4{fill:#1E88E5;}
	.st5{fill:#FFECB3;}
	.st6{fill:#3F51B5;}
	.st7{fill:#A3D866;}
	.st8{fill:#FF7043;}
	.st9{fill:#6D4C41;}
	.st10{fill:#FFD700;}
	.st11{fill:#5DADE2;}
	.st12{fill:#FDF5E6;}
	.st13{fill:#424242;}
	.st14{fill:#FBE134;}
	.st15{fill:#FCF8F1;}
	.st16{fill:#FBF7F0;}
	.st17{fill:#F04243;}
	.st18{clip-path:url(#SVGID_15_);fill:#E50102;}
	.st19{clip-path:url(#SVGID_15_);}
	.st20{clip-path:url(#SVGID_16_);fill:#FFC800;}
	.st21{fill:#754CAD;}
	.st22{opacity:0.6;clip-path:url(#SVGID_18_);fill:url(#);}
	.st23{display:none;fill:#5DADE2;}
	.st24{fill:#F39823;}
	.st25{opacity:0.9;fill:url(#);}
	.st26{fill:#FFC800;}
	.st27{fill:#D678C5;}
	.st28{opacity:0.43;fill:url(#);}
	.st29{opacity:0.33;}
	.st30{filter:url(#Adobe_OpacityMaskFilter);}
	.st31{mask:url(#SVGID_19_);}
	.st32{fill:#7B7B7B;}
	.st33{fill:#562896;}
	.st34{fill:#6436A3;}
	.st35{filter:url(#Adobe_OpacityMaskFilter_1_);}
	.st36{mask:url(#SVGID_20_);}
	.st37{fill:#D4D4D3;}
	.st38{fill:#F1C700;}
	.st39{fill:#ECA00E;}
	.st40{fill:#F3D12E;}
	.st41{fill:#F3CF24;}
	.st42{fill:#F4D869;}
	.st43{fill:#F1D03B;}
	.st44{fill:#67359B;}
	.st45{fill:#5F2B97;}
	.st46{fill:none;stroke:#FFFFFF;stroke-width:0.5;stroke-miterlimit:10;}
	.st47{filter:url(#Adobe_OpacityMaskFilter_2_);}
	.st48{mask:url(#SVGID_21_);}
	.st49{fill:#FFD606;}
	.st50{fill:#FFCB00;}
	.st51{fill:#DBB800;}
	.st52{fill:#F3D633;}
	.st53{filter:url(#Adobe_OpacityMaskFilter_3_);}
	.st54{mask:url(#SVGID_22_);}
	.st55{fill:#EF820A;}
	.st56{opacity:0.45;fill:#EF820A;}
	.st57{filter:url(#Adobe_OpacityMaskFilter_4_);}
	.st58{mask:url(#SVGID_23_);}
	.st59{filter:url(#Adobe_OpacityMaskFilter_5_);}
	.st60{mask:url(#SVGID_24_);}
	.st61{filter:url(#Adobe_OpacityMaskFilter_6_);}
	.st62{mask:url(#SVGID_25_);}
	.st63{filter:url(#Adobe_OpacityMaskFilter_7_);}
	.st64{mask:url(#SVGID_26_);}
	.st65{filter:url(#Adobe_OpacityMaskFilter_8_);}
	.st66{mask:url(#SVGID_27_);}
	.st67{filter:url(#Adobe_OpacityMaskFilter_9_);}
	.st68{mask:url(#SVGID_28_);}
	.st69{filter:url(#Adobe_OpacityMaskFilter_10_);}
	.st70{mask:url(#SVGID_29_);}
	.st71{filter:url(#Adobe_OpacityMaskFilter_11_);}
	.st72{mask:url(#SVGID_30_);}
	.st73{filter:url(#Adobe_OpacityMaskFilter_12_);}
	.st74{mask:url(#SVGID_31_);}
	.st75{filter:url(#Adobe_OpacityMaskFilter_13_);}
	.st76{mask:url(#SVGID_32_);}
	.st77{clip-path:url(#SVGID_34_);fill:#D678C5;}
	.st78{clip-path:url(#SVGID_36_);fill:#FFC800;}
	.st79{opacity:0.25;fill:#68182B;}
	
		.st80{fill:#FFFFFF;stroke:#68182B;stroke-width:3;stroke-linecap:round;stroke-linejoin:round;stroke-miterlimit:10;stroke-dasharray:2,10;}
	.st81{fill:#68182B;}
	.st82{fill:#FF2E60;}
	.st83{fill:#C18957;}
	.st84{fill:#EA0F4D;}
	.st85{fill:#FF6699;}
	.st86{fill:#AF7341;}
	.st87{fill:#E2A97A;}
	.st88{fill:#5CFFCD;}
	.st89{fill:#FFF18A;}
	.st90{fill:#DDA96B;}
	.st91{fill:#F3AF79;}
	.st92{fill:#FFF7CF;}
	.st93{fill:#27D89D;}
	.st94{fill:#D3FFEB;}
	.st95{fill:#FF7A0D;}
	.st96{fill:#EF6200;}
	.st97{fill:#FFB85A;}
	.st98{fill:none;stroke:#FFFFFF;stroke-width:0.5;stroke-linecap:round;stroke-linejoin:round;stroke-miterlimit:10;}
	.st99{clip-path:url(#SVGID_38_);}
	.st100{fill:none;stroke:#FFD700;stroke-width:0.5;stroke-linecap:round;stroke-linejoin:round;stroke-miterlimit:10;}
	.st101{fill:none;stroke:#E50102;stroke-width:0.5;stroke-linecap:round;stroke-linejoin:round;stroke-miterlimit:10;}
	.st102{fill:#A7A9AC;}
	.st103{fill:none;stroke:#2E3192;stroke-width:4;stroke-miterlimit:10;}
	.st104{fill:#2E3192;}
	.st105{fill:none;stroke:#2E3192;stroke-width:4;stroke-linecap:round;stroke-miterlimit:10;}
	.st106{fill:#FFF200;}
	.st107{clip-path:url(#SVGID_50_);}
	.st108{clip-path:url(#SVGID_51_);fill:#FFC800;}
	.st109{opacity:0.6;clip-path:url(#SVGID_53_);fill:url(#);}
	.st110{filter:url(#Adobe_OpacityMaskFilter_14_);}
	.st111{mask:url(#SVGID_54_);}
	.st112{filter:url(#Adobe_OpacityMaskFilter_15_);}
	.st113{mask:url(#SVGID_55_);}
	.st114{filter:url(#Adobe_OpacityMaskFilter_16_);}
	.st115{mask:url(#SVGID_56_);}
	.st116{filter:url(#Adobe_OpacityMaskFilter_17_);}
	.st117{mask:url(#SVGID_57_);}
	.st118{filter:url(#Adobe_OpacityMaskFilter_18_);}
	.st119{mask:url(#SVGID_58_);}
	.st120{filter:url(#Adobe_OpacityMaskFilter_19_);}
	.st121{mask:url(#SVGID_59_);}
	.st122{filter:url(#Adobe_OpacityMaskFilter_20_);}
	.st123{mask:url(#SVGID_60_);}
	.st124{filter:url(#Adobe_OpacityMaskFilter_21_);}
	.st125{mask:url(#SVGID_61_);}
	.st126{filter:url(#Adobe_OpacityMaskFilter_22_);}
	.st127{mask:url(#SVGID_62_);}
	.st128{filter:url(#Adobe_OpacityMaskFilter_23_);}
	.st129{mask:url(#SVGID_63_);}
	.st130{filter:url(#Adobe_OpacityMaskFilter_24_);}
	.st131{mask:url(#SVGID_64_);}
	.st132{filter:url(#Adobe_OpacityMaskFilter_25_);}
	.st133{mask:url(#SVGID_65_);}
	.st134{filter:url(#Adobe_OpacityMaskFilter_26_);}
	.st135{mask:url(#SVGID_66_);}
	.st136{filter:url(#Adobe_OpacityMaskFilter_27_);}
	.st137{mask:url(#SVGID_67_);}
	.st138{filter:url(#Adobe_OpacityMaskFilter_28_);}
	.st139{mask:url(#SVGID_68_);}
	.st140{filter:url(#Adobe_OpacityMaskFilter_29_);}
	.st141{mask:url(#SVGID_69_);}
	.st142{filter:url(#Adobe_OpacityMaskFilter_30_);}
	.st143{mask:url(#SVGID_70_);}
	.st144{filter:url(#Adobe_OpacityMaskFilter_31_);}
	.st145{mask:url(#SVGID_71_);}
	.st146{clip-path:url(#SVGID_73_);}
	.st147{clip-path:url(#SVGID_75_);}
	.st148{fill:none;stroke:#FCF8F1;stroke-width:0.5;stroke-linecap:round;stroke-linejoin:round;stroke-miterlimit:10;}
	.st149{clip-path:url(#SVGID_86_);}
	.st150{display:none;clip-path:url(#SVGID_86_);}
	.st151{display:inline;fill:#EF820A;}
	.st152{display:inline;}
	.st153{clip-path:url(#SVGID_87_);fill:#FFC800;}
	.st154{clip-path:url(#SVGID_89_);}
	.st155{clip-path:url(#SVGID_90_);fill:#FFC800;}
	.st156{clip-path:url(#SVGID_92_);}
	.st157{clip-path:url(#SVGID_93_);fill:#FFC800;}
	.st158{display:none;}
	.st159{clip-path:url(#SVGID_96_);}
	.st160{clip-path:url(#SVGID_97_);fill:#FFC800;}
	.st161{opacity:0.92;fill:#A64895;}
	.st162{display:none;clip-path:url(#SVGID_100_);}
	.st163{clip-path:url(#SVGID_101_);fill:#FFC800;}
	.st164{display:none;clip-path:url(#SVGID_103_);}
	.st165{clip-path:url(#SVGID_104_);fill:#FFC800;}
	.st166{clip-path:url(#SVGID_106_);}
	.st167{clip-path:url(#SVGID_107_);fill:#FFC800;}
	.st168{display:none;clip-path:url(#SVGID_109_);}
	.st169{clip-path:url(#SVGID_110_);fill:#FFC800;}
</style>
<g id="Layer_1">
</g>
<g id="Layer_2">
</g>
<g id="Layer_3">
</g>
<g id="Layer_4">
</g>
<g id="Layer_5">
</g>
<g id="Layer_8">
	<g>
		<g>
			<path class="st0" d="M221.22,120.37c70.86,0,128.51,57.65,128.51,128.51s-57.65,128.51-128.51,128.51S92.71,319.74,92.71,248.88
				S150.36,120.37,221.22,120.37 M221.22,104.43c-79.78,0-144.45,64.67-144.45,144.45s64.67,144.45,144.45,144.45
				s144.45-64.67,144.45-144.45S301,104.43,221.22,104.43L221.22,104.43z"/>
		</g>
		<g>
			<g>
				<path class="st0" d="M31.46,423.1v24.88h-5.17v-10.46h-7.24v10.46h-5.17V423.1h5.17v9.95h7.24v-9.95H31.46z"/>
				<path class="st0" d="M48.77,447.97h-5.17v-7.62l-7.14-17.25h5.64l4.08,10.88l4.05-10.88h5.64l-7.11,17.25V447.97z"/>
				<path class="st0" d="M59.52,436.17v-1.28c0-8.61,3.09-12.21,9.54-12.21c5.93,0,9.06,2.49,9.06,8.71v1.15h-5.17
					c0-3.41-0.73-5.39-3.6-5.39h-0.29c-3.41,0-4.27,2.78-4.27,7.75v1.28c0,4.98,0.83,7.75,4.46,7.75h0.29
					c1.47,0,2.61-0.42,3.38-0.96v-3.99h-3.28v-4.46h8.45v10.97c-1.85,1.53-4.37,2.9-8.71,2.9
					C62.61,448.39,59.52,444.78,59.52,436.17z"/>
				<path class="st0" d="M89.81,447.97h-5.17V423.1h5.17V447.97z"/>
				<path class="st0" d="M111.68,423.1v4.46h-10.05v5.49h8.45v4.46h-8.45v6h10.05v4.46H96.47V423.1H111.68z"/>
				<path class="st0" d="M135.92,447.97h-5.45l-8.04-15.44l0.16,5.01v10.43h-4.88V423.1h5.45l8,15.44l-0.16-5.01V423.1h4.91V447.97z
					"/>
				<path class="st0" d="M147.78,447.97h-5.17V423.1h5.17V447.97z"/>
				<path class="st0" d="M163.24,443.92h0.29c2.52,0,3.44-1.75,3.44-4.43h5.17v0.29c0,6.12-3,8.61-8.9,8.61
					c-6.47,0-9.34-3.6-9.34-12.21v-1.28c0-8.61,2.87-12.21,9.34-12.21c5.9,0,8.9,2.49,8.9,8.71v1.15h-5.17
					c0-3.41-0.73-5.39-3.44-5.39h-0.29c-3.32,0-4.11,2.78-4.11,7.75v1.28C159.13,441.15,159.93,443.92,163.24,443.92z"/>
				<path class="st0" d="M189.74,423.03l6.22,24.94h-5.52l-1.21-5.36h-6.09l-1.18,5.36h-5.55l6.22-24.94H189.74z M184.13,438.15
					h4.08l-2.04-9.15L184.13,438.15z"/>
				<path class="st0" d="M201.16,447.97V423.1h5.17v20.41h9.18v4.46H201.16z"/>
				<path class="st0" d="M220.73,447.97V423.1h5.17v20.41h9.18v4.46H220.73z"/>
				<path class="st0" d="M248.67,447.97h-5.17v-7.62l-7.14-17.25H242l4.08,10.88l4.05-10.88h5.64l-7.11,17.25V447.97z"/>
				<path class="st0" d="M275.29,447.97h-5.17V423.1h8.16c4.05,0,8.64,1.05,8.64,7.65v0.64c0,6.63-4.59,7.65-8.64,7.65h-3V447.97z
					 M278.51,434.58c1.4,0,3.19-0.54,3.19-3.35v-0.32c0-2.81-1.79-3.35-3.19-3.35h-3.22v7.02H278.51z"/>
				<path class="st0" d="M303.77,423.03l6.22,24.94h-5.52l-1.21-5.36h-6.09l-1.18,5.36h-5.55l6.22-24.94H303.77z M298.16,438.15
					h4.08L300.2,429L298.16,438.15z"/>
				<path class="st0" d="M323.6,443.92h0.29c2.52,0,3.44-1.75,3.44-4.43h5.17v0.29c0,6.12-3,8.61-8.9,8.61
					c-6.47,0-9.34-3.6-9.34-12.21v-1.28c0-8.61,2.87-12.21,9.34-12.21c5.9,0,8.9,2.49,8.9,8.71v1.15h-5.17
					c0-3.41-0.73-5.39-3.44-5.39h-0.29c-3.32,0-4.11,2.78-4.11,7.75v1.28C319.49,441.15,320.28,443.92,323.6,443.92z"/>
				<path class="st0" d="M343.66,432.86l6.12-9.76h6.25l-6.98,9.98l6.98,14.89h-5.74l-4.53-10.17l-2.1,3v7.18h-5.17V423.1h5.17
					V432.86z"/>
				<path class="st0" d="M373.38,423.03l6.22,24.94h-5.52l-1.21-5.36h-6.09l-1.18,5.36h-5.55l6.22-24.94H373.38z M367.76,438.15
					h4.08L369.8,429L367.76,438.15z"/>
				<path class="st0" d="M383.87,436.17v-1.28c0-8.61,3.09-12.21,9.54-12.21c5.93,0,9.06,2.49,9.06,8.71v1.15h-5.17
					c0-3.41-0.73-5.39-3.6-5.39h-0.29c-3.41,0-4.27,2.78-4.27,7.75v1.28c0,4.98,0.83,7.75,4.46,7.75h0.29
					c1.47,0,2.61-0.42,3.38-0.96v-3.99h-3.28v-4.46h8.45v10.97c-1.85,1.53-4.37,2.9-8.71,2.9
					C386.96,448.39,383.87,444.78,383.87,436.17z"/>
				<path class="st0" d="M424.04,423.1v4.46H414v5.49h8.45v4.46H414v6h10.05v4.46h-15.21V423.1H424.04z"/>
				<path class="st0" d="M437.69,447.97h-7.62V423.1h7.62c7.4,0,10.49,3.19,10.49,11.8v1.28
					C448.18,444.78,445.09,447.97,437.69,447.97z M437.4,443.51c4.3,0,5.52-2.36,5.52-7.33v-1.28c0-4.97-1.21-7.33-5.52-7.33h-2.17
					v15.95H437.4z"/>
			</g>
		</g>
		<g>
			<path class="st17" d="M291.19,301.44c-8.18-11.09-18.87-19.36-30.15-26.71c-9.16-5.96-19.58-4.69-29.3-0.8
				c-5.95,2.38-11.83,2.66-17.54,0.94c-7.62-2.31-15.29-2.56-23.07-2.58c-3.33-0.01-6.1,1.15-8.09,3.78
				c-1.11,1.46,7.98,7.54,15.76,7.54c-1.44,2.89-26.63-3.22-29.99-2.97l-19.06-2.44c-6.77-0.55-6.76-3.11-13.42,0.66
				c-0.23,0.13-0.55,0.13-0.83,0.11c-3.7-0.21-5.8,0.97-7.85,3.42c-1.19,1.42-1.09,3.15-0.46,4.81c0.67,1.72,2.36,1.28,3.76,1.82
				c8.52,3.38,11.27,5.03,22.83,7.88c8.22,2.04,16.22,4.52,24.43,6.37c3.39,0.77,6.84,1.34,9.91,3.06
				c6.51,3.66,13.41,4.77,20.85,4.43c8.42-0.38,16.88-0.05,25.33-0.09c14.83-0.07,26.09,5.87,33.71,18.92l47.71-0.09
				C305.3,317.32,300.71,314.37,291.19,301.44z"/>
			<g>
				<path class="st17" d="M211.48,244.2c0,0-43.77-13.22-35.49-72.37c0,0,60.66,11.44,41.02,68.45c0,0-18.15-24.35-21.46-37.56
					C195.55,202.72,200.51,233.28,211.48,244.2z"/>
				<path class="st0" d="M215.96,235.63c0,0-11.11-35.69,32.73-57.18c0,0,20.05,46.3-27.55,59.13c0,0,8.17-23.44,15.59-31.73
					C236.74,205.84,218.33,223.21,215.96,235.63z"/>
			</g>
		</g>
	</g>
</g>
<g id="Layer_6">
</g>
<g id="Layer_7">
</g>
</svg>
