<?xml version="1.0" encoding="utf-8"?>
<!-- Generator: Adobe Illustrator 25.0.0, SVG Export Plug-In . SVG Version: 6.00 Build 0)  -->
<svg version="1.1" id="Layer_1" xmlns="http://www.w3.org/2000/svg" xmlns:xlink="http://www.w3.org/1999/xlink" x="0px" y="0px"
	 viewBox="0 0 338.1 260.34" style="enable-background:new 0 0 338.1 260.34;" xml:space="preserve">
<style type="text/css">
	.st0{fill:#E50102;}
	.st1{fill:#FFFFFF;}
</style>
<path class="st0" d="M48.64,22.86c4.83,0,9.67-0.04,14.5,0.03c1.19,0.02,2.41,0.22,3.55,0.57c11.02,3.39,22.03,6.82,33.04,10.26
	c1.12,0.35,2.12,0.43,3.1-0.36c0.55-0.44,1.26-0.71,1.78-1.18c2.88-2.58,6.51-2.04,9.87-2.25c7.45-0.47,14.91-0.82,22.37-0.84
	c8.95-0.02,17.9,0.39,26.85,0.54c1.46,0.03,2.12,0.53,2.44,1.97c2.31,10.45,4.69,20.88,7.06,31.31c2.63,11.55,5.3,23.1,7.9,34.66
	c0.33,1.45,0.92,2.22,2.52,2.14c7.66-0.42,15.33-0.77,23-1.2c3.94-0.22,7.88-0.52,11.81-0.83c4.64-0.36,9.28-0.81,13.93-1.15
	c4.92-0.36,9.85-0.87,14.77-0.89c25.93-0.09,51.87-0.04,77.8-0.04c2.27,0,2.2,0.05,1.99,2.35c-0.42,4.48-0.69,8.97-1.04,13.45
	c-0.5,6.5-1.02,13.01-1.52,19.51c-0.32,4.21-0.62,8.43-0.94,12.64c-0.52,6.95-1.06,13.9-1.56,20.85c-0.2,2.85-0.33,5.7-0.49,8.54
	c-0.1,1.8-0.48,2.06-2.26,1.85c-7.07-0.84-14.14-1.63-21.21-2.45c-5.55-0.65-11.09-1.44-16.65-1.93c-4.8-0.42-4.04-0.74-3.95,3.4
	c0.32,13.56,0.59,27.12,0.92,40.69c0.15,6.15,0.38,12.3,0.64,18.44c0.05,1.27-0.37,1.64-1.6,1.55c-5.8-0.42-11.6-0.75-17.39-1.18
	c-8.75-0.65-17.48-1.38-26.23-2.02c-5.09-0.37-10.18-0.6-15.27-0.95c-6.62-0.45-13.24-1.09-19.86-1.39
	c-3.55-0.16-7.12,0.13-10.68,0.36c-4.32,0.27-8.63,0.7-12.95,1.04c-4.65,0.37-9.29,0.73-13.94,1.09c-4.65,0.36-9.3,0.68-13.94,1.06
	c-6.12,0.5-12.23,1.07-18.34,1.57c-3.99,0.33-7.99,0.57-11.98,0.87c-6.46,0.49-12.91,1-19.36,1.49c-5.91,0.45-11.81,0.9-17.72,1.35
	c-4.54,0.35-9.08,0.72-13.62,1.03c-0.91,0.06-1.88,0.04-2.75-0.21c-12.98-3.74-25.95-7.54-38.93-11.28
	c-1.18-0.34-1.55-0.82-1.34-2.09c2.06-12.22,4.05-24.46,6.08-36.69c0.11-0.69,0.35-1.41,0.72-2c3.27-5.27,6.56-10.52,9.92-15.74
	c0.36-0.57,1.12-1.07,1.79-1.22c8.82-2.05,17.65-4.03,26.48-6.03c2.41-0.55,4.81-1.15,7.23-1.61c1.11-0.21,1.45-0.8,1.44-1.82
	c-0.01-2.64-0.05-5.28,0.03-7.91c0.03-0.9,0.24-1.86,0.6-2.68c2.07-4.73,4.24-9.41,6.29-14.14c0.33-0.76,0.52-1.73,0.39-2.53
	c-1.16-7.03-2.41-14.05-3.63-21.07c-0.2-1.13-0.47-2.26-0.61-3.4c-0.14-1.13-0.72-1.45-1.79-1.37c-8.19,0.68-16.38,1.37-24.57,1.97
	c-6.84,0.5-13.68,0.92-20.53,1.29c-0.8,0.04-1.73-0.31-2.42-0.76c-4.1-2.66-8.12-5.44-12.21-8.11c-1.11-0.72-1.23-1.48-0.98-2.76
	c1.91-9.58,3.7-19.18,5.56-28.77c1.42-7.33,2.88-14.64,4.3-21.97c1.45-7.49,2.9-14.97,4.3-22.47c0.48-2.56,0.41-2.6,2.95-2.61
	c4.78-0.02,9.56,0,14.34,0C48.64,22.84,48.64,22.85,48.64,22.86z M154.69,200.33c-0.17-0.02-0.34-0.03-0.52-0.05
	c-0.3-1.98-0.61-3.97-0.9-5.95c-0.47-3.14-0.94-6.29-1.41-9.43c-0.19-1.29-0.86-1.86-2.24-1.77c-2.63,0.16-5.27,0.23-7.91,0.26
	c-1.15,0.01-1.8,0.44-2.18,1.55c-1.29,3.68-2.64,7.34-4,10.99c-0.4,1.08-0.9,2.13-1.35,3.19c-0.14-0.02-0.28-0.05-0.42-0.07
	c-0.25-1.55-0.54-3.09-0.75-4.64c-0.94-7.23-1.9-14.45-2.75-21.69c-0.16-1.33-0.76-1.72-1.92-1.59c-4.3,0.5-8.6,1.04-12.91,1.5
	c-1.35,0.14-1.59,0.82-1.39,1.99c0.56,3.3,1.06,6.6,1.61,9.9c2.03,12.12,4.1,24.23,6.08,36.35c0.23,1.39,0.8,1.85,2.12,1.86
	c4.45,0.05,8.9,0.14,13.34,0.27c1.07,0.03,1.59-0.37,1.89-1.37c0.77-2.58,1.62-5.13,2.45-7.69c0.16-0.48,0.37-0.95,0.55-1.43
	c0.14,0.01,0.27,0.03,0.41,0.04c0.39,2.69,0.85,5.38,1.14,8.08c0.16,1.49,0.74,2.1,2.28,2.11c4.17,0,8.35,0.05,12.52,0.25
	c1.56,0.08,2.41-0.32,2.65-1.88c0.08-0.48,0.27-0.95,0.41-1.42c3.15-10.86,6.3-21.73,9.46-32.58c2.07-7.11,4.14-14.23,6.27-21.33
	c0.43-1.44,0.04-2.11-1.36-2.54c-2.63-0.79-5.24-1.65-7.82-2.59c-1.38-0.5-1.94-0.13-2.33,1.26c-2.79,9.94-5.65,19.86-8.5,29.78
	C156.41,194.58,155.54,197.45,154.69,200.33z M288.92,128.26c-0.16,0-0.33-0.01-0.49-0.01c-0.33-0.8-0.67-1.59-1-2.39
	c-2.91-7.17-5.83-14.35-8.73-21.52c-0.36-0.88-0.74-1.55-1.9-1.37c-3.25,0.49-6.51,1-9.78,1.34c-1.55,0.16-2,0.85-2.03,2.32
	c-0.11,5.44-0.29,10.87-0.51,16.3c-0.45,11.13-0.94,22.27-1.44,33.4c-0.05,1.16,0.33,1.74,1.55,1.78c3.73,0.11,7.46,0.31,11.19,0.4
	c2.56,0.06,2.57,0,2.57-2.49c0-7.53,0-15.06,0-22.58c0-0.8,0-1.6,0-2.39c0.54,0.22,0.79,0.49,0.93,0.8
	c1.02,2.13,2.12,4.23,2.98,6.42c0.65,1.67,1.58,2.49,3.43,2.25c1.08-0.14,2.19,0,3.29-0.02c5.4-0.09,3.96,0.79,6.37-4.07
	c0.88-1.78,1.75-3.57,2.63-5.36c0.38,0.51,0.45,0.92,0.46,1.33c0.1,5.22,0.23,10.44,0.28,15.66c0.05,5.77,0.02,11.54,0.04,17.31
	c0,0.86-0.14,1.8,1.24,1.85c4.17,0.13,8.33,0.29,12.5,0.49c1.12,0.05,1.44-0.42,1.4-1.46c-0.12-3.68-0.17-7.36-0.3-11.04
	c-0.39-10.92-0.83-21.84-1.21-32.75c-0.19-5.6-0.3-11.2-0.45-16.8c-0.01-0.55-0.09-1.09-0.14-1.64c-0.08-1.04-0.54-1.37-1.63-1.22
	c-2.88,0.38-5.79,0.55-8.66,0.97c-0.62,0.09-1.38,0.72-1.66,1.31c-2.17,4.44-4.23,8.93-6.33,13.4
	C292,121.73,290.46,125,288.92,128.26z M190.26,147.86c0.14,0.01,0.28,0.03,0.42,0.04c0.07,0.36,0.14,0.72,0.19,1.08
	c0.35,2.38,0.71,4.77,1.02,7.16c0.15,1.13,0.72,1.57,1.86,1.59c4.39,0.09,8.78,0.2,13.17,0.4c1.42,0.06,2.03-0.47,2.4-1.83
	c1.64-6.1,3.37-12.16,5.07-18.24c2.43-8.72,4.84-17.46,7.31-26.17c0.37-1.31,0.15-2.03-1.24-2.45c-2.73-0.84-5.42-1.79-8.11-2.76
	c-1.26-0.46-1.82,0-2.13,1.2c-1.9,7.33-3.82,14.65-5.75,21.97c-0.51,1.93-1.06,3.84-1.7,6.13c-0.32-0.61-0.48-0.79-0.51-0.98
	c-0.72-4.87-1.47-9.74-2.13-14.62c-0.18-1.32-0.65-1.95-2.08-1.91c-2.63,0.08-5.27,0.06-7.91,0c-1.24-0.03-1.87,0.47-2.29,1.63
	c-1.52,4.18-3.11,8.33-4.69,12.49c-0.2,0.51-0.46,1-0.85,1.84c-0.29-0.83-0.51-1.23-0.56-1.65c-0.48-3.47-0.92-6.95-1.38-10.42
	c-0.65-4.88-1.34-9.76-1.96-14.65c-0.17-1.32-0.76-1.55-2-1.38c-4.06,0.58-8.14,1.07-12.22,1.51c-2.02,0.22-2.28,0.43-1.93,2.41
	c0.93,5.29,1.9,10.56,2.78,15.86c1.67,10.06,3.29,20.12,4.89,30.19c0.16,1.02,0.67,1.4,1.64,1.43c4.39,0.12,8.78,0.2,13.16,0.42
	c1.7,0.08,2.46-0.6,2.9-2.17C188.41,153.23,189.38,150.56,190.26,147.86z M240.42,193.35c-0.54-1.14-0.93-1.89-1.25-2.68
	c-2.92-7.17-5.84-14.34-8.72-21.53c-0.42-1.04-0.98-1.44-2.11-1.27c-3.36,0.49-6.74,0.89-10.11,1.33c-1.04,0.14-1.28,0.83-1.31,1.76
	c-0.14,4.33-0.3,8.67-0.46,13c-0.15,3.95-0.3,7.9-0.48,11.84c-0.39,8.33-0.79,16.65-1.23,24.98c-0.08,1.47,0.4,2.07,1.91,2.13
	c3.73,0.13,7.46,0.37,11.18,0.59c2.17,0.13,2.3,0.04,2.3-2.23c-0.02-7.91-0.04-15.82-0.06-23.73c0-0.61,0.06-1.22,0.09-1.83
	c0.14-0.02,0.29-0.04,0.43-0.06c1.25,2.67,2.55,5.31,3.72,8.01c0.47,1.08,1.14,1.48,2.27,1.46c2.31-0.04,4.62-0.06,6.92,0.01
	c1.27,0.04,2.01-0.42,2.54-1.6c1.14-2.54,2.41-5.02,3.63-7.52c0.38,1.3,0.43,2.54,0.37,3.77c-0.35,7.02-0.71,14.03-1.11,21.04
	c-0.08,1.41,0.44,2,1.84,2.06c3.56,0.15,7.13,0.34,10.69,0.6c2.74,0.19,2.91,0.12,2.86-2.67c-0.26-17.19-0.56-34.38-0.79-51.57
	c-0.02-1.47-0.62-1.81-1.89-1.67c-2.56,0.29-5.12,0.56-7.68,0.86c-1.2,0.14-2.08,0.59-2.65,1.84c-3.24,7.09-6.57,14.14-9.88,21.2
	C241.19,191.98,240.89,192.47,240.42,193.35z M100.27,63.06c-0.49-1.07-0.78-1.65-1.03-2.25c-2.92-7.11-5.84-14.23-8.74-21.34
	c-0.93-2.27-1.01-2.31-3.57-1.91c-2.6,0.4-5.2,0.8-7.81,1.11c-2.08,0.25-2.44,0.52-2.53,2.65c-0.3,7.07-0.59,14.15-0.85,21.22
	c-0.33,9.11-0.61,18.22-0.93,27.33c-0.09,2.46-0.03,2.6,2.55,2.76c3.4,0.21,6.8,0.34,10.2,0.46c2.18,0.08,2.22,0.01,2.22-2.15
	c0-8.13,0-16.27,0.01-24.4c0-0.54,0.05-1.09,0.08-1.63c1.62,2.65,2.92,5.31,4.09,8.03c0.55,1.27,1.28,1.9,2.73,1.84
	c2.25-0.1,4.51-0.09,6.76-0.01c1.24,0.04,1.9-0.49,2.39-1.57c0.98-2.15,2.05-4.25,3.11-6.36c0.14-0.29,0.41-0.52,0.86-1.08
	c0,1.01,0.02,1.61,0,2.2c-0.26,7.24-0.53,14.48-0.8,21.72c-0.1,2.63,0.07,2.87,2.74,3c3.29,0.16,6.58,0.29,9.87,0.4
	c2.4,0.08,2.44,0.04,2.41-2.3c-0.12-9.34-0.29-18.68-0.37-28.02c-0.08-7.86-0.05-15.72-0.11-23.57c-0.01-2.03-0.42-2.3-2.37-2.04
	c-2.07,0.27-4.15,0.41-6.21,0.71c-1.41,0.21-2.95,0.09-3.73,1.83c-2.15,4.81-4.4,9.58-6.64,14.35
	C103.24,56.92,101.85,59.76,100.27,63.06z M111.05,198.28c-0.08,0-0.16,0-0.24,0c0-8.24,0-16.48,0-24.72c0-2.47-0.34-2.73-2.81-2.36
	c-2.76,0.41-5.52,0.88-8.3,1.14c-1.36,0.13-1.74,0.67-1.79,1.94c-0.22,5.43-0.56,10.85-0.79,16.27c-0.05,1.13-0.44,1.57-1.57,1.54
	c-1.98-0.04-3.96-0.07-5.93,0.05c-1.65,0.1-2.22-0.51-2.2-2.17c0.05-6.15-0.05-12.3,0-18.45c0.01-1.45-0.47-2.09-1.92-2.23
	c-3.55-0.34-7.09-0.76-10.62-1.18c-1.17-0.14-1.23,0.59-1.26,1.42c-0.27,8.28-0.53,16.57-0.83,24.85c-0.21,5.7-0.5,11.4-0.74,17.11
	c-0.17,4.11-0.29,8.23-0.45,12.34c-0.04,1.04,0.2,1.69,1.45,1.6c4.16-0.28,8.32-0.5,12.49-0.73c1.53-0.08,2.54-0.58,2.26-2.4
	c-0.11-0.7-0.02-1.43-0.02-2.14c-0.01-5.05-0.03-10.11-0.02-15.16c0-0.82-0.09-1.74,1.2-1.68c2.03,0.1,4.05,0.19,6.08,0.27
	c1.3,0.05,1.55,0.7,1.49,1.94c-0.29,5.86-0.46,11.73-0.7,17.6c-0.05,1.11,0.39,1.6,1.51,1.63c3.9,0.11,7.79,0.23,11.68,0.45
	c1.57,0.09,2.07-0.44,2.06-2.05C111.01,214.87,111.05,206.57,111.05,198.28z M159.35,133.38c-0.12,0-0.23,0-0.35,0
	c0-6.65,0-13.29,0-19.94c0-1.98-0.02-3.95-0.01-5.93c0-0.87-0.33-1.39-1.27-1.26c-3.31,0.45-6.61,0.94-9.91,1.37
	c-1.34,0.18-1.75,0.84-1.79,2.19c-0.17,5.37-0.5,10.74-0.72,16.11c-0.05,1.17-0.45,1.68-1.68,1.62c-1.81-0.08-3.62-0.02-5.44-0.04
	c-2.25-0.02-2.25-0.03-2.29-2.26c-0.12-6.26-0.24-12.52-0.38-18.78c-0.02-0.83,0.21-1.83-1.14-1.97c-3.49-0.37-6.97-0.79-10.45-1.18
	c-1.28-0.14-1.99,0.36-2,1.72c-0.01,1.48-0.05,2.96-0.1,4.45c-0.4,10.36-0.81,20.72-1.2,31.08c-0.21,5.76-0.3,11.52-0.61,17.27
	c-0.15,2.83-0.32,2.91,2.56,2.76c3.83-0.2,7.64-0.65,11.47-0.8c1.55-0.06,1.93-0.58,1.91-2.04c-0.07-5.88,0.02-11.75-0.04-17.63
	c-0.01-1.41,0.49-1.87,1.81-1.72c1.47,0.16,2.95,0.32,4.42,0.39c2.81,0.12,2.81,0.1,2.67,2.9c-0.01,0.27-0.06,0.55-0.07,0.82
	c-0.23,5.21-0.44,10.41-0.68,15.62c-0.05,1.04,0.24,1.65,1.42,1.72c3.88,0.21,7.76,0.52,11.65,0.72c2.13,0.11,2.23-0.03,2.23-2.17
	C159.35,150.07,159.35,141.73,159.35,133.38z M169.37,99.92c0.88,0.07,0.62-0.9,0.44-1.78c-1.72-8.15-3.45-16.3-5.17-24.46
	c-2.36-11.22-4.7-22.43-7.06-33.65c-0.46-2.21-0.74-2.32-3-2.04c-4.46,0.56-8.92,1.08-13.39,1.51c-2.45,0.24-2.44,0.15-2.98,2.57
	c-2.57,11.57-5.16,23.13-7.73,34.69c-1.05,4.71-2.08,9.42-3.11,14.14c-0.24,1.08-0.4,2.14,1.25,2.2c3.89,0.13,7.78,0.25,11.67,0.45
	c1.42,0.07,1.95-0.58,2.17-1.86c0.36-2.21,0.92-4.4,1.19-6.62c0.15-1.28,0.77-1.47,1.83-1.49c2.14-0.04,4.28-0.17,6.42-0.28
	c2.26-0.11,2.38,0.02,2.74,2.21c0.68,4.16,1.46,8.3,2.11,12.47c0.15,0.99,0.57,1.25,1.49,1.29
	C161.74,99.45,165.24,99.68,169.37,99.92z M192.33,213.91c0-0.04,0-0.09,0-0.13c1.26,0,2.53,0.02,3.79-0.01
	c0.86-0.02,1.27,0.3,1.41,1.2c0.33,2.17,0.83,4.31,1.15,6.48c0.17,1.1,0.59,1.65,1.77,1.69c3.24,0.1,6.47,0.31,9.7,0.44
	c1.98,0.08,2.09-0.11,1.67-2.05c-3.69-16.93-7.39-33.87-11.07-50.8c-0.54-2.47-0.78-2.59-3.31-2.29c-4.57,0.55-9.15,1.05-13.74,1.45
	c-1.3,0.12-1.95,0.53-2.24,1.86c-1.29,6.01-2.67,11.99-4.01,17.99c-2.35,10.49-4.68,20.99-7.04,31.48
	c-0.29,1.27-0.19,2.18,1.41,2.24c4,0.15,8,0.31,12.01,0.47c0.9,0.04,1.4-0.28,1.55-1.26c0.3-2.06,0.73-4.1,1.06-6.15
	c0.36-2.24,0.55-2.47,2.76-2.59C190.24,213.87,191.29,213.91,192.33,213.91z M258.06,158.47c0,0.15,0,0.3,0,0.45
	c2.24,0.09,2.45-0.17,1.95-2.45c-2.64-12.06-5.27-24.12-7.9-36.18c-1.12-5.15-2.23-10.3-3.32-15.46c-0.18-0.84-0.4-1.46-1.46-1.34
	c-5.22,0.59-10.45,1.21-15.68,1.71c-1.32,0.13-1.8,0.81-2.04,1.91c-0.56,2.52-1.12,5.04-1.67,7.55
	c-3.05,13.83-6.09,27.65-9.15,41.48c-0.47,2.13-0.34,2.3,1.91,2.38c3.56,0.13,7.14,0.18,10.68,0.53c1.71,0.17,2.27-0.46,2.51-1.93
	c0.37-2.28,0.73-4.56,1.25-6.8c0.11-0.48,0.87-1.13,1.36-1.15c2.58-0.12,5.16-0.04,7.74-0.09c0.95-0.02,1.42,0.36,1.59,1.25
	c0.35,1.83,0.93,3.65,1.02,5.49c0.11,2.37,1.28,2.56,2.99,2.62C252.58,158.54,255.32,158.47,258.06,158.47z M71.94,92.98
	c-0.14-0.85-0.24-1.66-0.41-2.45c-0.88-4.02-1.81-8.02-2.68-12.04c-2.79-12.87-5.57-25.75-8.36-38.62c-0.42-1.93-0.74-2.14-2.7-1.92
	c-4.85,0.54-9.7,1.12-14.55,1.59c-1.23,0.12-1.72,0.73-1.96,1.81c-0.85,3.86-1.72,7.71-2.58,11.56c-1.99,8.95-3.96,17.9-5.95,26.84
	c-0.83,3.75-1.68,7.5-2.53,11.25c-0.23,1-0.33,1.98,1.07,2.05c4.11,0.2,8.22,0.34,12.33,0.5c1,0.04,1.5-0.46,1.66-1.43
	c0.41-2.43,0.92-4.85,1.27-7.29c0.14-0.93,0.56-1.18,1.39-1.21c2.47-0.09,4.94-0.16,7.4-0.35c1.34-0.1,1.92,0.49,2.12,1.71
	c0.29,1.79,0.62,3.57,0.9,5.36c0.35,2.25,0.47,2.35,2.68,2.42c0.93,0.03,1.86,0.21,2.79,0.22C66.46,93,69.07,92.98,71.94,92.98z
	 M112.36,104.08c-0.84,0.09-2.15,0.19-3.45,0.38c-5.16,0.77-10.27,1.62-14.97,4.15c-4.62,2.48-6.14,5.79-4.7,11
	c1.12,4.06,3.42,7.79,5.22,11.66c1.32,2.83,2.95,5.54,3.97,8.47c1.17,3.36-0.2,5.75-3.61,6.7c-2.31,0.64-4.72,0.93-7.11,1.24
	c-1.19,0.15-1.53,0.65-1.27,1.73c0.94,3.78,1.92,7.56,2.8,11.35c0.25,1.07,0.8,1.35,1.75,1.19c1.73-0.29,3.48-0.53,5.19-0.9
	c4.89-1.08,9.75-2.36,13.83-5.42c3.79-2.85,5.85-6.65,4.54-11.45c-0.92-3.36-2.28-6.61-3.69-9.81c-1.4-3.16-3.24-6.12-4.64-9.27
	c-1.15-2.6-0.03-4.46,2.78-4.85c1.55-0.21,3.16-0.16,4.72-0.02c2.66,0.23,3-0.02,2.83-2.68c-0.03-0.44-0.11-0.87-0.16-1.31
	c-0.33-3.22-0.71-6.43-0.96-9.65C115.23,104.06,115.31,104.05,112.36,104.08z M68.33,183.59c-0.43-4.47-0.86-8.95-1.27-13.43
	c-0.11-1.24-0.84-1.52-1.94-1.38c-2.12,0.27-4.26,0.45-6.37,0.77c-4.52,0.68-8.93,1.64-13.03,3.85c-4.22,2.27-5.57,5.02-4.97,10.06
	c0.45,3.79,2.38,7.03,4.12,10.34c1.88,3.58,3.87,7.15,5.31,10.91c1.19,3.12-0.01,5.31-3.19,6.32c-2.41,0.77-5.02,0.98-7.56,1.3
	c-1.13,0.14-1.56,0.42-1.24,1.63c0.96,3.72,1.89,7.45,2.72,11.2c0.36,1.6,1.21,1.85,2.62,1.49c1.22-0.32,2.48-0.45,3.71-0.71
	c4.86-1.02,9.65-2.24,13.85-5.03c4.04-2.68,5.99-6.36,5.38-11.34c-0.55-4.49-2.68-8.31-4.75-12.19c-1.31-2.47-2.7-4.93-3.69-7.53
	c-1.13-2.96,0.3-4.87,3.44-4.95c1.75-0.05,3.52-0.02,5.26,0.16C67.98,185.2,68.5,184.83,68.33,183.59z"/>
<path class="st1" d="M154.69,200.33c0.85-2.88,1.73-5.75,2.56-8.64c2.85-9.92,5.71-19.84,8.5-29.78c0.39-1.4,0.96-1.76,2.33-1.26
	c2.58,0.94,5.19,1.8,7.82,2.59c1.4,0.42,1.79,1.09,1.36,2.54c-2.14,7.1-4.2,14.21-6.27,21.33c-3.16,10.86-6.31,21.72-9.46,32.58
	c-0.14,0.47-0.33,0.94-0.41,1.42c-0.25,1.56-1.09,1.96-2.65,1.88c-4.17-0.21-8.35-0.25-12.52-0.25c-1.54,0-2.12-0.62-2.28-2.11
	c-0.29-2.7-0.75-5.39-1.14-8.08c-0.14-0.01-0.27-0.03-0.41-0.04c-0.19,0.47-0.4,0.94-0.55,1.43c-0.83,2.56-1.67,5.12-2.45,7.69
	c-0.3,1-0.82,1.4-1.89,1.37c-4.45-0.13-8.9-0.22-13.34-0.27c-1.32-0.01-1.9-0.48-2.12-1.86c-1.98-12.12-4.05-24.23-6.08-36.35
	c-0.55-3.3-1.05-6.61-1.61-9.9c-0.2-1.17,0.04-1.85,1.39-1.99c4.31-0.46,8.6-1.01,12.91-1.5c1.16-0.13,1.76,0.26,1.92,1.59
	c0.86,7.24,1.81,14.46,2.75,21.69c0.2,1.55,0.49,3.09,0.75,4.64c0.14,0.02,0.28,0.05,0.42,0.07c0.45-1.06,0.95-2.11,1.35-3.19
	c1.36-3.66,2.71-7.31,4-10.99c0.39-1.11,1.04-1.54,2.18-1.55c2.64-0.03,5.27-0.09,7.91-0.26c1.38-0.09,2.05,0.49,2.24,1.77
	c0.47,3.14,0.94,6.29,1.41,9.43c0.3,1.98,0.6,3.97,0.9,5.95C154.34,200.3,154.51,200.32,154.69,200.33z"/>
<path class="st1" d="M288.92,128.26c1.54-3.27,3.08-6.53,4.61-9.8c2.1-4.47,4.16-8.96,6.33-13.4c0.28-0.58,1.04-1.22,1.66-1.31
	c2.87-0.41,5.78-0.59,8.66-0.97c1.09-0.14,1.55,0.19,1.63,1.22c0.04,0.55,0.12,1.09,0.14,1.64c0.15,5.6,0.25,11.2,0.45,16.8
	c0.38,10.92,0.82,21.84,1.21,32.75c0.13,3.68,0.17,7.36,0.3,11.04c0.03,1.04-0.28,1.51-1.4,1.46c-4.16-0.2-8.33-0.37-12.5-0.49
	c-1.38-0.04-1.23-0.99-1.24-1.85c-0.02-5.77,0.01-11.54-0.04-17.31c-0.05-5.22-0.18-10.44-0.28-15.66
	c-0.01-0.41-0.08-0.82-0.46-1.33c-0.88,1.79-1.75,3.58-2.63,5.36c-2.41,4.87-0.98,3.98-6.37,4.07c-1.1,0.02-2.21-0.12-3.29,0.02
	c-1.85,0.24-2.78-0.58-3.43-2.25c-0.86-2.19-1.97-4.29-2.98-6.42c-0.15-0.31-0.39-0.58-0.93-0.8c0,0.8,0,1.6,0,2.39
	c0,7.53,0,15.06,0,22.58c0,2.5-0.01,2.55-2.57,2.49c-3.73-0.09-7.46-0.29-11.19-0.4c-1.23-0.04-1.6-0.62-1.55-1.78
	c0.5-11.13,0.98-22.26,1.44-33.4c0.22-5.43,0.4-10.87,0.51-16.3c0.03-1.47,0.48-2.16,2.03-2.32c3.27-0.35,6.53-0.85,9.78-1.34
	c1.16-0.18,1.54,0.49,1.9,1.37c2.9,7.18,5.82,14.35,8.73,21.52c0.33,0.8,0.67,1.59,1,2.39
	C288.59,128.25,288.76,128.26,288.92,128.26z"/>
<path class="st1" d="M190.26,147.86c-0.89,2.7-1.85,5.37-2.63,8.1c-0.45,1.57-1.2,2.26-2.9,2.17c-4.38-0.22-8.78-0.3-13.16-0.42
	c-0.97-0.03-1.47-0.4-1.64-1.43c-1.61-10.07-3.23-20.13-4.89-30.19c-0.88-5.29-1.85-10.57-2.78-15.86c-0.35-1.98-0.09-2.2,1.93-2.41
	c4.08-0.44,8.16-0.94,12.22-1.51c1.24-0.18,1.83,0.06,2,1.38c0.62,4.89,1.3,9.77,1.96,14.65c0.46,3.47,0.91,6.95,1.38,10.42
	c0.06,0.42,0.27,0.81,0.56,1.65c0.39-0.83,0.65-1.32,0.85-1.84c1.58-4.16,3.18-8.31,4.69-12.49c0.42-1.16,1.05-1.66,2.29-1.63
	c2.64,0.06,5.27,0.08,7.91,0c1.43-0.04,1.9,0.59,2.08,1.91c0.66,4.88,1.4,9.75,2.13,14.62c0.03,0.2,0.19,0.37,0.51,0.98
	c0.64-2.29,1.19-4.2,1.7-6.13c1.93-7.32,3.85-14.64,5.75-21.97c0.31-1.2,0.87-1.66,2.13-1.2c2.68,0.97,5.38,1.92,8.11,2.76
	c1.39,0.43,1.61,1.14,1.24,2.45c-2.47,8.72-4.88,17.45-7.31,26.17c-1.7,6.08-3.43,12.15-5.07,18.24c-0.36,1.36-0.97,1.89-2.4,1.83
	c-4.39-0.2-8.78-0.31-13.17-0.4c-1.15-0.02-1.71-0.46-1.86-1.59c-0.31-2.39-0.67-4.77-1.02-7.16c-0.05-0.36-0.13-0.72-0.19-1.08
	C190.54,147.89,190.4,147.88,190.26,147.86z"/>
<path class="st1" d="M240.42,193.35c0.47-0.88,0.77-1.37,1.01-1.89c3.31-7.06,6.64-14.11,9.88-21.2c0.57-1.25,1.46-1.7,2.65-1.84
	c2.56-0.3,5.12-0.56,7.68-0.86c1.27-0.15,1.87,0.2,1.89,1.67c0.23,17.19,0.53,34.38,0.79,51.57c0.04,2.79-0.13,2.87-2.86,2.67
	c-3.56-0.25-7.12-0.44-10.69-0.6c-1.4-0.06-1.92-0.65-1.84-2.06c0.41-7.01,0.76-14.03,1.11-21.04c0.06-1.23,0.01-2.46-0.37-3.77
	c-1.22,2.5-2.49,4.98-3.63,7.52c-0.53,1.18-1.26,1.64-2.54,1.6c-2.31-0.07-4.61-0.06-6.92-0.01c-1.13,0.02-1.8-0.38-2.27-1.46
	c-1.17-2.7-2.47-5.34-3.72-8.01c-0.14,0.02-0.29,0.04-0.43,0.06c-0.03,0.61-0.09,1.22-0.09,1.83c0.01,7.91,0.04,15.82,0.06,23.73
	c0,2.27-0.13,2.36-2.3,2.23c-3.73-0.22-7.45-0.47-11.18-0.59c-1.52-0.05-1.99-0.65-1.91-2.13c0.45-8.32,0.84-16.65,1.23-24.98
	c0.19-3.95,0.33-7.9,0.48-11.84c0.16-4.33,0.33-8.66,0.46-13c0.03-0.93,0.27-1.63,1.31-1.76c3.37-0.44,6.75-0.85,10.11-1.33
	c1.13-0.16,1.69,0.23,2.11,1.27c2.88,7.19,5.8,14.36,8.72,21.53C239.49,191.45,239.89,192.21,240.42,193.35z"/>
<path class="st1" d="M100.27,63.06c1.58-3.3,2.97-6.14,4.31-9c2.24-4.77,4.48-9.54,6.64-14.35c0.78-1.75,2.33-1.62,3.73-1.83
	c2.06-0.3,4.15-0.44,6.21-0.71c1.95-0.26,2.36,0.01,2.37,2.04c0.06,7.86,0.03,15.72,0.11,23.57c0.09,9.34,0.25,18.68,0.37,28.02
	c0.03,2.34-0.01,2.38-2.41,2.3c-3.29-0.11-6.58-0.24-9.87-0.4c-2.67-0.13-2.84-0.37-2.74-3c0.28-7.24,0.54-14.48,0.8-21.72
	c0.02-0.6,0-1.19,0-2.2c-0.46,0.56-0.72,0.79-0.86,1.08c-1.06,2.11-2.13,4.22-3.11,6.36c-0.49,1.08-1.14,1.61-2.39,1.57
	c-2.25-0.08-4.51-0.08-6.76,0.01c-1.45,0.06-2.18-0.57-2.73-1.84c-1.17-2.72-2.47-5.38-4.09-8.03c-0.03,0.54-0.08,1.09-0.08,1.63
	c-0.01,8.13-0.01,16.27-0.01,24.4c0,2.16-0.04,2.23-2.22,2.15c-3.4-0.13-6.8-0.25-10.2-0.46c-2.58-0.16-2.63-0.3-2.55-2.76
	c0.32-9.11,0.6-18.22,0.93-27.33c0.25-7.08,0.55-14.15,0.85-21.22c0.09-2.12,0.45-2.4,2.53-2.65c2.61-0.32,5.21-0.71,7.81-1.11
	c2.56-0.39,2.64-0.36,3.57,1.91c2.91,7.12,5.82,14.23,8.74,21.34C99.49,61.41,99.78,61.99,100.27,63.06z"/>
<path class="st1" d="M111.05,198.28c0,8.29-0.04,16.58,0.04,24.88c0.01,1.61-0.48,2.13-2.06,2.05c-3.89-0.21-7.79-0.33-11.68-0.45
	c-1.13-0.03-1.56-0.52-1.51-1.63c0.24-5.86,0.41-11.73,0.7-17.6c0.06-1.24-0.2-1.89-1.49-1.94c-2.03-0.08-4.05-0.16-6.08-0.27
	c-1.29-0.07-1.2,0.86-1.2,1.68c0,5.05,0.01,10.11,0.02,15.16c0,0.71-0.09,1.44,0.02,2.14c0.27,1.81-0.74,2.31-2.26,2.4
	c-4.16,0.23-8.33,0.46-12.49,0.73c-1.26,0.08-1.49-0.57-1.45-1.6c0.16-4.11,0.28-8.23,0.45-12.34c0.23-5.7,0.53-11.4,0.74-17.11
	c0.3-8.28,0.56-16.56,0.83-24.85c0.03-0.83,0.09-1.56,1.26-1.42c3.54,0.42,7.08,0.84,10.62,1.18c1.45,0.14,1.93,0.78,1.92,2.23
	c-0.05,6.15,0.05,12.3,0,18.45c-0.01,1.65,0.55,2.27,2.2,2.17c1.97-0.12,3.95-0.09,5.93-0.05c1.13,0.03,1.52-0.42,1.57-1.54
	c0.23-5.43,0.57-10.85,0.79-16.27c0.05-1.28,0.43-1.82,1.79-1.94c2.78-0.26,5.54-0.73,8.3-1.14c2.47-0.37,2.81-0.11,2.81,2.36
	c0.01,8.24,0,16.48,0,24.72C110.89,198.28,110.97,198.28,111.05,198.28z"/>
<path class="st1" d="M159.35,133.38c0,8.35,0,16.69,0,25.04c0,2.14-0.1,2.27-2.23,2.17c-3.88-0.2-7.76-0.51-11.65-0.72
	c-1.18-0.06-1.46-0.68-1.42-1.72c0.24-5.2,0.45-10.41,0.68-15.62c0.01-0.27,0.06-0.55,0.07-0.82c0.14-2.81,0.13-2.78-2.67-2.9
	c-1.48-0.07-2.95-0.23-4.42-0.39c-1.33-0.15-1.83,0.32-1.81,1.72c0.06,5.88-0.03,11.75,0.04,17.63c0.02,1.46-0.36,1.98-1.91,2.04
	c-3.83,0.15-7.64,0.6-11.47,0.8c-2.88,0.15-2.71,0.07-2.56-2.76c0.31-5.75,0.4-11.52,0.61-17.27c0.39-10.36,0.8-20.72,1.2-31.08
	c0.06-1.48,0.09-2.96,0.1-4.45c0.01-1.37,0.72-1.87,2-1.72c3.48,0.39,6.96,0.81,10.45,1.18c1.35,0.14,1.12,1.14,1.14,1.97
	c0.14,6.26,0.26,12.52,0.38,18.78c0.04,2.23,0.04,2.23,2.29,2.26c1.81,0.02,3.63-0.05,5.44,0.04c1.23,0.06,1.63-0.45,1.68-1.62
	c0.22-5.37,0.55-10.74,0.72-16.11c0.04-1.36,0.45-2.02,1.79-2.19c3.31-0.43,6.61-0.92,9.91-1.37c0.94-0.13,1.27,0.39,1.27,1.26
	c-0.01,1.98,0.01,3.95,0.01,5.93c0,6.65,0,13.29,0,19.94C159.11,133.38,159.23,133.38,159.35,133.38z"/>
<path class="st1" d="M169.37,99.92c-4.13-0.24-7.63-0.47-11.13-0.64c-0.92-0.04-1.33-0.3-1.49-1.29c-0.65-4.16-1.43-8.31-2.11-12.47
	c-0.36-2.18-0.48-2.32-2.74-2.21c-2.14,0.11-4.28,0.24-6.42,0.28c-1.07,0.02-1.68,0.2-1.83,1.49c-0.26,2.22-0.82,4.41-1.19,6.62
	c-0.21,1.28-0.75,1.93-2.17,1.86c-3.89-0.2-7.78-0.32-11.67-0.45c-1.65-0.05-1.49-1.11-1.25-2.2c1.03-4.72,2.06-9.43,3.11-14.14
	c2.57-11.57,5.16-23.13,7.73-34.69c0.54-2.42,0.53-2.34,2.98-2.57c4.47-0.43,8.93-0.95,13.39-1.51c2.26-0.29,2.54-0.18,3,2.04
	c2.35,11.22,4.7,22.43,7.06,33.65c1.72,8.15,3.45,16.31,5.17,24.46C169.99,99.02,170.25,99.99,169.37,99.92z M149.3,55.62
	c-0.13,0.01-0.27,0.01-0.4,0.02c-0.16,0.73-0.34,1.46-0.46,2.2c-0.76,4.37-1.53,8.74-2.21,13.13c-0.07,0.45,0.34,1.35,0.67,1.42
	c1.33,0.28,2.71,0.33,4.08,0.46c1.06,0.1,1.35-0.43,1.17-1.4C151.19,66.17,150.25,60.89,149.3,55.62z"/>
<path class="st1" d="M192.33,213.91c-1.04,0-2.09-0.05-3.13,0.01c-2.21,0.12-2.4,0.35-2.76,2.59c-0.33,2.05-0.76,4.09-1.06,6.15
	c-0.14,0.98-0.64,1.3-1.55,1.26c-4-0.16-8-0.33-12.01-0.47c-1.6-0.06-1.69-0.97-1.41-2.24c2.36-10.49,4.69-20.99,7.04-31.48
	c1.34-6,2.72-11.98,4.01-17.99c0.29-1.33,0.94-1.74,2.24-1.86c4.59-0.41,9.17-0.91,13.74-1.45c2.53-0.3,2.78-0.19,3.31,2.29
	c3.68,16.93,7.38,33.87,11.07,50.8c0.42,1.94,0.31,2.13-1.67,2.05c-3.24-0.13-6.47-0.33-9.7-0.44c-1.18-0.04-1.61-0.58-1.77-1.69
	c-0.33-2.17-0.82-4.31-1.15-6.48c-0.14-0.9-0.55-1.22-1.41-1.2c-1.26,0.03-2.53,0.01-3.79,0.01
	C192.33,213.82,192.33,213.87,192.33,213.91z M192.3,185.94c-0.25,0.37-0.37,0.48-0.4,0.61c-0.93,5.06-1.87,10.12-2.74,15.19
	c-0.05,0.3,0.4,0.94,0.69,1c1.4,0.25,2.82,0.37,4.23,0.51c0.99,0.1,1.4-0.26,1.17-1.34c-0.4-1.93-0.67-3.88-1.03-5.82
	C193.62,192.79,192.98,189.49,192.3,185.94z"/>
<path class="st1" d="M258.06,158.47c-2.74,0-5.48,0.07-8.21-0.03c-1.71-0.06-2.88-0.25-2.99-2.62c-0.09-1.84-0.67-3.66-1.02-5.49
	c-0.17-0.9-0.64-1.27-1.59-1.25c-2.58,0.05-5.17-0.03-7.74,0.09c-0.49,0.02-1.25,0.67-1.36,1.15c-0.52,2.24-0.88,4.52-1.25,6.8
	c-0.24,1.47-0.8,2.1-2.51,1.93c-3.54-0.35-7.12-0.4-10.68-0.53c-2.25-0.08-2.38-0.24-1.91-2.38c3.06-13.82,6.1-27.65,9.15-41.48
	c0.56-2.52,1.12-5.04,1.67-7.55c0.24-1.11,0.72-1.79,2.04-1.91c5.23-0.5,10.46-1.11,15.68-1.71c1.06-0.12,1.28,0.5,1.46,1.34
	c1.09,5.16,2.2,10.31,3.32,15.46c2.63,12.06,5.26,24.12,7.9,36.18c0.5,2.28,0.3,2.54-1.95,2.45
	C258.06,158.77,258.06,158.62,258.06,158.47z M240.63,121.3c-0.14-0.02-0.29-0.03-0.43-0.05c-0.99,5.44-1.98,10.89-3.01,16.6
	c1.79,0.23,3.35,0.36,4.88,0.64c1.23,0.23,1.61-0.13,1.39-1.36C242.49,131.86,241.57,126.57,240.63,121.3z"/>
<path class="st1" d="M71.94,92.98c-2.86,0-5.48,0.02-8.1-0.01c-0.93-0.01-1.86-0.19-2.79-0.22c-2.21-0.07-2.33-0.17-2.68-2.42
	c-0.28-1.79-0.61-3.57-0.9-5.36c-0.2-1.21-0.78-1.81-2.12-1.71c-2.46,0.19-4.94,0.26-7.4,0.35c-0.83,0.03-1.26,0.28-1.39,1.21
	c-0.35,2.44-0.86,4.86-1.27,7.29c-0.16,0.97-0.66,1.47-1.66,1.43c-4.11-0.16-8.22-0.3-12.33-0.5c-1.4-0.07-1.29-1.05-1.07-2.05
	c0.85-3.75,1.69-7.5,2.53-11.25c1.99-8.95,3.96-17.9,5.95-26.84c0.86-3.86,1.73-7.71,2.58-11.56c0.24-1.08,0.72-1.69,1.96-1.81
	c4.86-0.47,9.7-1.04,14.55-1.59c1.96-0.22,2.28-0.02,2.7,1.92c2.79,12.87,5.57,25.75,8.36,38.62c0.87,4.02,1.8,8.03,2.68,12.04
	C71.7,91.32,71.8,92.13,71.94,92.98z M52.21,55.68c-0.13,0.01-0.26,0.02-0.39,0.02c-0.08,0.25-0.19,0.5-0.24,0.76
	c-0.73,4.21-1.44,8.43-2.17,12.64c-0.54,3.1-0.55,3.1,2.44,3.58c3.25,0.52,3.42,0.38,2.88-2.81C53.94,65.15,53.06,60.42,52.21,55.68
	z"/>
<path class="st1" d="M112.36,104.08c2.95-0.03,2.88-0.02,3.07,2.5c0.25,3.22,0.63,6.43,0.96,9.65c0.04,0.44,0.13,0.87,0.16,1.31
	c0.17,2.66-0.17,2.92-2.83,2.68c-1.56-0.14-3.18-0.19-4.72,0.02c-2.81,0.39-3.93,2.25-2.78,4.85c1.4,3.16,3.24,6.11,4.64,9.27
	c1.41,3.19,2.77,6.45,3.69,9.81c1.31,4.8-0.74,8.6-4.54,11.45c-4.08,3.07-8.94,4.34-13.83,5.42c-1.71,0.38-3.46,0.61-5.19,0.9
	c-0.95,0.16-1.5-0.12-1.75-1.19c-0.88-3.8-1.86-7.57-2.8-11.35c-0.27-1.08,0.07-1.57,1.27-1.73c2.39-0.3,4.8-0.59,7.11-1.24
	c3.41-0.95,4.78-3.34,3.61-6.7c-1.02-2.93-2.65-5.64-3.97-8.47c-1.81-3.86-4.1-7.6-5.22-11.66c-1.44-5.21,0.08-8.51,4.7-11
	c4.7-2.53,9.81-3.39,14.97-4.15C110.2,104.27,111.52,104.17,112.36,104.08z"/>
<path class="st1" d="M68.33,183.59c0.17,1.25-0.34,1.62-1.61,1.49c-1.74-0.18-3.51-0.2-5.26-0.16c-3.14,0.08-4.58,1.99-3.44,4.95
	c0.99,2.6,2.38,5.06,3.69,7.53c2.06,3.88,4.19,7.7,4.75,12.19c0.62,4.98-1.33,8.66-5.38,11.34c-4.2,2.79-8.99,4.01-13.85,5.03
	c-1.23,0.26-2.49,0.39-3.71,0.71c-1.42,0.37-2.27,0.11-2.62-1.49c-0.84-3.75-1.76-7.48-2.72-11.2c-0.31-1.22,0.11-1.49,1.24-1.63
	c2.54-0.32,5.15-0.53,7.56-1.3c3.18-1.02,4.37-3.21,3.19-6.32c-1.43-3.77-3.43-7.33-5.31-10.91c-1.74-3.31-3.67-6.55-4.12-10.34
	c-0.6-5.05,0.75-7.79,4.97-10.06c4.11-2.21,8.52-3.17,13.03-3.85c2.11-0.32,4.25-0.5,6.37-0.77c1.1-0.14,1.83,0.14,1.94,1.38
	C67.47,174.64,67.9,179.11,68.33,183.59z"/>
<path class="st0" d="M149.3,55.62c0.94,5.27,1.88,10.55,2.84,15.82c0.18,0.98-0.11,1.5-1.17,1.4c-1.36-0.13-2.75-0.17-4.08-0.46
	c-0.32-0.07-0.74-0.97-0.67-1.42c0.68-4.39,1.45-8.76,2.21-13.13c0.13-0.74,0.31-1.47,0.46-2.2
	C149.03,55.63,149.17,55.62,149.3,55.62z"/>
<path class="st0" d="M192.3,185.94c0.68,3.55,1.32,6.85,1.93,10.15c0.36,1.94,0.62,3.89,1.03,5.82c0.23,1.09-0.18,1.44-1.17,1.34
	c-1.41-0.14-2.84-0.26-4.23-0.51c-0.3-0.05-0.75-0.7-0.69-1c0.87-5.07,1.81-10.13,2.74-15.19
	C191.93,186.42,192.06,186.31,192.3,185.94z"/>
<path class="st0" d="M240.63,121.3c0.94,5.28,1.86,10.56,2.83,15.83c0.22,1.23-0.15,1.59-1.39,1.36c-1.53-0.28-3.1-0.41-4.88-0.64
	c1.04-5.72,2.03-11.16,3.01-16.6C240.34,121.26,240.48,121.28,240.63,121.3z"/>
<path class="st0" d="M52.21,55.68c0.85,4.73,1.72,9.46,2.53,14.2c0.54,3.19,0.37,3.32-2.88,2.81c-3-0.48-2.98-0.47-2.44-3.58
	c0.73-4.21,1.44-8.43,2.17-12.64c0.05-0.26,0.16-0.51,0.24-0.76C51.96,55.7,52.09,55.69,52.21,55.68z"/>
</svg>
