<?xml version="1.0" encoding="utf-8"?>
<!-- Generator: Adobe Illustrator 25.0.0, SVG Export Plug-In . SVG Version: 6.00 Build 0)  -->
<svg version="1.1" xmlns="http://www.w3.org/2000/svg" xmlns:xlink="http://www.w3.org/1999/xlink" x="0px" y="0px"
	 viewBox="0 0 464.35 505.53" style="enable-background:new 0 0 464.35 505.53;" xml:space="preserve">
<style type="text/css">
	.st0{fill:#E50102;}
	.st1{fill:#FFFFFF;}
	.st2{fill:#F0F4C3;}
	.st3{fill:#FFC107;}
	.st4{fill:#1E88E5;}
	.st5{fill:#FFECB3;}
	.st6{fill:#3F51B5;}
	.st7{fill:#A3D866;}
	.st8{fill:#FF7043;}
	.st9{fill:#6D4C41;}
	.st10{fill:#FFD700;}
	.st11{fill:#5DADE2;}
	.st12{fill:#FDF5E6;}
	.st13{fill:#424242;}
	.st14{fill:#FBE134;}
	.st15{fill:#FCF8F1;}
	.st16{fill:#FBF7F0;}
	.st17{fill:#F04243;}
	.st18{clip-path:url(#SVGID_15_);fill:#E50102;}
	.st19{clip-path:url(#SVGID_15_);}
	.st20{clip-path:url(#SVGID_16_);fill:#FFC800;}
	.st21{fill:#754CAD;}
	.st22{opacity:0.6;clip-path:url(#SVGID_18_);fill:url(#);}
	.st23{display:none;fill:#5DADE2;}
	.st24{fill:#F39823;}
	.st25{opacity:0.9;fill:url(#);}
	.st26{fill:#FFC800;}
	.st27{fill:#D678C5;}
	.st28{opacity:0.43;fill:url(#);}
	.st29{opacity:0.33;}
	.st30{filter:url(#Adobe_OpacityMaskFilter);}
	.st31{mask:url(#SVGID_19_);}
	.st32{fill:#7B7B7B;}
	.st33{fill:#562896;}
	.st34{fill:#6436A3;}
	.st35{filter:url(#Adobe_OpacityMaskFilter_1_);}
	.st36{mask:url(#SVGID_20_);}
	.st37{fill:#D4D4D3;}
	.st38{fill:#F1C700;}
	.st39{fill:#ECA00E;}
	.st40{fill:#F3D12E;}
	.st41{fill:#F3CF24;}
	.st42{fill:#F4D869;}
	.st43{fill:#F1D03B;}
	.st44{fill:#67359B;}
	.st45{fill:#5F2B97;}
	.st46{fill:none;stroke:#FFFFFF;stroke-width:0.5;stroke-miterlimit:10;}
	.st47{filter:url(#Adobe_OpacityMaskFilter_2_);}
	.st48{mask:url(#SVGID_21_);}
	.st49{fill:#FFD606;}
	.st50{fill:#FFCB00;}
	.st51{fill:#DBB800;}
	.st52{fill:#F3D633;}
	.st53{filter:url(#Adobe_OpacityMaskFilter_3_);}
	.st54{mask:url(#SVGID_22_);}
	.st55{fill:#EF820A;}
	.st56{opacity:0.45;fill:#EF820A;}
	.st57{filter:url(#Adobe_OpacityMaskFilter_4_);}
	.st58{mask:url(#SVGID_23_);}
	.st59{filter:url(#Adobe_OpacityMaskFilter_5_);}
	.st60{mask:url(#SVGID_24_);}
	.st61{filter:url(#Adobe_OpacityMaskFilter_6_);}
	.st62{mask:url(#SVGID_25_);}
	.st63{filter:url(#Adobe_OpacityMaskFilter_7_);}
	.st64{mask:url(#SVGID_26_);}
	.st65{filter:url(#Adobe_OpacityMaskFilter_8_);}
	.st66{mask:url(#SVGID_27_);}
	.st67{filter:url(#Adobe_OpacityMaskFilter_9_);}
	.st68{mask:url(#SVGID_28_);}
	.st69{filter:url(#Adobe_OpacityMaskFilter_10_);}
	.st70{mask:url(#SVGID_29_);}
	.st71{filter:url(#Adobe_OpacityMaskFilter_11_);}
	.st72{mask:url(#SVGID_30_);}
	.st73{filter:url(#Adobe_OpacityMaskFilter_12_);}
	.st74{mask:url(#SVGID_31_);}
	.st75{filter:url(#Adobe_OpacityMaskFilter_13_);}
	.st76{mask:url(#SVGID_32_);}
	.st77{clip-path:url(#SVGID_34_);fill:#D678C5;}
	.st78{clip-path:url(#SVGID_36_);fill:#FFC800;}
	.st79{opacity:0.25;fill:#68182B;}
	
		.st80{fill:#FFFFFF;stroke:#68182B;stroke-width:3;stroke-linecap:round;stroke-linejoin:round;stroke-miterlimit:10;stroke-dasharray:2,10;}
	.st81{fill:#68182B;}
	.st82{fill:#FF2E60;}
	.st83{fill:#C18957;}
	.st84{fill:#EA0F4D;}
	.st85{fill:#FF6699;}
	.st86{fill:#AF7341;}
	.st87{fill:#E2A97A;}
	.st88{fill:#5CFFCD;}
	.st89{fill:#FFF18A;}
	.st90{fill:#DDA96B;}
	.st91{fill:#F3AF79;}
	.st92{fill:#FFF7CF;}
	.st93{fill:#27D89D;}
	.st94{fill:#D3FFEB;}
	.st95{fill:#FF7A0D;}
	.st96{fill:#EF6200;}
	.st97{fill:#FFB85A;}
	.st98{fill:none;stroke:#FFFFFF;stroke-width:0.5;stroke-linecap:round;stroke-linejoin:round;stroke-miterlimit:10;}
	.st99{clip-path:url(#SVGID_38_);}
	.st100{fill:none;stroke:#FFD700;stroke-width:0.5;stroke-linecap:round;stroke-linejoin:round;stroke-miterlimit:10;}
	.st101{fill:none;stroke:#E50102;stroke-width:0.5;stroke-linecap:round;stroke-linejoin:round;stroke-miterlimit:10;}
	.st102{fill:#A7A9AC;}
	.st103{fill:none;stroke:#2E3192;stroke-width:4;stroke-miterlimit:10;}
	.st104{fill:#2E3192;}
	.st105{fill:none;stroke:#2E3192;stroke-width:4;stroke-linecap:round;stroke-miterlimit:10;}
	.st106{fill:#FFF200;}
	.st107{clip-path:url(#SVGID_50_);}
	.st108{clip-path:url(#SVGID_51_);fill:#FFC800;}
	.st109{opacity:0.6;clip-path:url(#SVGID_53_);fill:url(#);}
	.st110{filter:url(#Adobe_OpacityMaskFilter_14_);}
	.st111{mask:url(#SVGID_54_);}
	.st112{filter:url(#Adobe_OpacityMaskFilter_15_);}
	.st113{mask:url(#SVGID_55_);}
	.st114{filter:url(#Adobe_OpacityMaskFilter_16_);}
	.st115{mask:url(#SVGID_56_);}
	.st116{filter:url(#Adobe_OpacityMaskFilter_17_);}
	.st117{mask:url(#SVGID_57_);}
	.st118{filter:url(#Adobe_OpacityMaskFilter_18_);}
	.st119{mask:url(#SVGID_58_);}
	.st120{filter:url(#Adobe_OpacityMaskFilter_19_);}
	.st121{mask:url(#SVGID_59_);}
	.st122{filter:url(#Adobe_OpacityMaskFilter_20_);}
	.st123{mask:url(#SVGID_60_);}
	.st124{filter:url(#Adobe_OpacityMaskFilter_21_);}
	.st125{mask:url(#SVGID_61_);}
	.st126{filter:url(#Adobe_OpacityMaskFilter_22_);}
	.st127{mask:url(#SVGID_62_);}
	.st128{filter:url(#Adobe_OpacityMaskFilter_23_);}
	.st129{mask:url(#SVGID_63_);}
	.st130{filter:url(#Adobe_OpacityMaskFilter_24_);}
	.st131{mask:url(#SVGID_64_);}
	.st132{filter:url(#Adobe_OpacityMaskFilter_25_);}
	.st133{mask:url(#SVGID_65_);}
	.st134{filter:url(#Adobe_OpacityMaskFilter_26_);}
	.st135{mask:url(#SVGID_66_);}
	.st136{filter:url(#Adobe_OpacityMaskFilter_27_);}
	.st137{mask:url(#SVGID_67_);}
	.st138{filter:url(#Adobe_OpacityMaskFilter_28_);}
	.st139{mask:url(#SVGID_68_);}
	.st140{filter:url(#Adobe_OpacityMaskFilter_29_);}
	.st141{mask:url(#SVGID_69_);}
	.st142{filter:url(#Adobe_OpacityMaskFilter_30_);}
	.st143{mask:url(#SVGID_70_);}
	.st144{filter:url(#Adobe_OpacityMaskFilter_31_);}
	.st145{mask:url(#SVGID_71_);}
	.st146{clip-path:url(#SVGID_73_);}
	.st147{clip-path:url(#SVGID_75_);}
	.st148{fill:none;stroke:#FCF8F1;stroke-width:0.5;stroke-linecap:round;stroke-linejoin:round;stroke-miterlimit:10;}
	.st149{clip-path:url(#SVGID_86_);}
	.st150{display:none;clip-path:url(#SVGID_86_);}
	.st151{display:inline;fill:#EF820A;}
	.st152{display:inline;}
	.st153{clip-path:url(#SVGID_87_);fill:#FFC800;}
	.st154{clip-path:url(#SVGID_89_);}
	.st155{clip-path:url(#SVGID_90_);fill:#FFC800;}
	.st156{clip-path:url(#SVGID_92_);}
	.st157{clip-path:url(#SVGID_93_);fill:#FFC800;}
	.st158{display:none;}
	.st159{clip-path:url(#SVGID_96_);}
	.st160{clip-path:url(#SVGID_97_);fill:#FFC800;}
	.st161{opacity:0.92;fill:#A64895;}
	.st162{display:none;clip-path:url(#SVGID_100_);}
	.st163{clip-path:url(#SVGID_101_);fill:#FFC800;}
	.st164{display:none;clip-path:url(#SVGID_103_);}
	.st165{clip-path:url(#SVGID_104_);fill:#FFC800;}
	.st166{clip-path:url(#SVGID_106_);}
	.st167{clip-path:url(#SVGID_107_);fill:#FFC800;}
	.st168{display:none;clip-path:url(#SVGID_109_);}
	.st169{clip-path:url(#SVGID_110_);fill:#FFC800;}
</style>
<g id="Layer_1">
</g>
<g id="Layer_2">
</g>
<g id="Layer_3">
</g>
<g id="Layer_4">
</g>
<g id="Layer_5">
</g>
<g id="Layer_8">
	<g>
		<g>
			<g>
				<g>
					<path class="st0" d="M52.04,460.64h-6.78l-9.99-19.18l0.2,6.22v12.96h-6.06v-30.91h6.78l9.95,19.18l-0.2-6.22v-12.96h6.1
						V460.64z"/>
					<path class="st0" d="M59.49,445.98v-1.58c0-10.7,3.76-15.18,11.77-15.18c8.04,0,11.81,4.48,11.81,15.18v1.58
						c0,10.7-3.76,15.18-11.81,15.18C63.25,461.15,59.49,456.68,59.49,445.98z M71.45,455.61c3.96,0,5.07-3.45,5.07-9.63v-1.58
						c0-6.18-1.11-9.63-5.07-9.63H71.1c-3.96,0-5.11,3.45-5.11,9.63v1.58c0,6.18,1.15,9.63,5.11,9.63H71.45z"/>
					<path class="st0" d="M108.54,460.64h-6.42v-30.91h10.14c5.03,0,10.74,1.31,10.74,9.51v0.79c0,8.24-5.71,9.51-10.74,9.51h-3.72
						V460.64z M112.54,444c1.74,0,3.96-0.67,3.96-4.16v-0.4c0-3.49-2.22-4.16-3.96-4.16h-4V444H112.54z"/>
					<path class="st0" d="M136.36,460.64h-6.42v-30.91h10.14c5.03,0,10.74,1.31,10.74,9.51v0.79c0,4.99-2.1,7.45-4.87,8.6
						l4.87,12.01h-6.93l-4.24-11.1h-3.29V460.64z M140.36,444c1.74,0,3.96-0.67,3.96-4.16v-0.4c0-3.49-2.22-4.16-3.96-4.16h-4V444
						H140.36z"/>
					<path class="st0" d="M177.21,429.73v5.55h-12.48v6.82h10.5v5.55h-10.5v7.45h12.48v5.55h-18.9v-30.91H177.21z"/>
					<path class="st0" d="M184.07,438.84v-0.44c0-5.59,3.84-9.19,10.9-9.19c7.61,0,10.94,3.37,10.94,10.62v0.83h-6.42
						c0-4.04-1.23-5.91-4.48-5.91h-0.36c-2.58,0-4.08,1.43-4.08,3.41v0.2c0,2.26,0.91,3.45,5.43,4.04
						c6.74,0.91,10.14,3.21,10.14,8.96v0.4c0,5.94-3.92,9.39-11.17,9.39c-7.29,0-11.13-3.25-11.13-10.7v-0.36h6.42
						c0,3.88,1.58,5.51,4.56,5.51h0.36c2.97,0,4.44-1.59,4.44-3.65v-0.2c0-2.22-1.15-3.45-5.63-4.04
						C187.24,446.81,184.07,444.43,184.07,438.84z"/>
					<path class="st0" d="M232.29,429.73v5.55h-12.48v6.82h10.5v5.55h-10.5v7.45h12.48v5.55h-18.9v-30.91H232.29z"/>
					<path class="st0" d="M246.2,460.64h-6.42v-30.91h10.14c5.03,0,10.74,1.31,10.74,9.51v0.79c0,4.99-2.1,7.45-4.87,8.6l4.87,12.01
						h-6.93l-4.24-11.1h-3.29V460.64z M250.2,444c1.74,0,3.96-0.67,3.96-4.16v-0.4c0-3.49-2.22-4.16-3.96-4.16h-4V444H250.2z"/>
					<path class="st0" d="M274.21,460.72l-7.73-30.99h6.86l5.27,23.58l5.27-23.58h6.89l-7.73,30.99H274.21z"/>
					<path class="st0" d="M310.31,429.65l7.73,30.99h-6.86l-1.51-6.66h-7.57l-1.47,6.66h-6.9l7.73-30.99H310.31z M303.34,448.43
						h5.07l-2.54-11.37L303.34,448.43z"/>
					<path class="st0" d="M334.44,460.64h-6.42v-25.36h-7.13v-5.55h20.72v5.55h-7.17V460.64z"/>
					<path class="st0" d="M354.81,460.64h-6.42v-30.91h6.42V460.64z"/>
					<path class="st0" d="M369.15,460.72l-7.73-30.99h6.86l5.27,23.58l5.27-23.58h6.89l-7.73,30.99H369.15z"/>
					<path class="st0" d="M411.08,429.73v5.55h-12.48v6.82h10.5v5.55h-10.5v7.45h12.48v5.55h-18.9v-30.91H411.08z"/>
					<path class="st0" d="M417.93,438.84v-0.44c0-5.59,3.84-9.19,10.9-9.19c7.61,0,10.94,3.37,10.94,10.62v0.83h-6.42
						c0-4.04-1.23-5.91-4.48-5.91h-0.36c-2.58,0-4.08,1.43-4.08,3.41v0.2c0,2.26,0.91,3.45,5.43,4.04
						c6.74,0.91,10.14,3.21,10.14,8.96v0.4c0,5.94-3.92,9.39-11.17,9.39c-7.29,0-11.13-3.25-11.13-10.7v-0.36h6.42
						c0,3.88,1.58,5.51,4.56,5.51h0.36c2.97,0,4.44-1.59,4.44-3.65v-0.2c0-2.22-1.15-3.45-5.63-4.04
						C421.1,446.81,417.93,444.43,417.93,438.84z"/>
				</g>
			</g>
		</g>
		<g>
			<path class="st0" d="M227.21,309.06c0,0-112.21-33.9-90.98-185.52c0,0,155.49,29.33,105.16,175.47c0,0-46.52-62.41-55.01-96.28
				C186.38,202.73,199.11,281.08,227.21,309.06z"/>
			<path class="st17" d="M242.38,303.05c0,0-28.48-91.49,83.9-146.58c0,0,51.4,118.68-70.61,151.58c0,0,20.94-60.09,39.97-81.35
				C295.64,226.7,248.43,271.21,242.38,303.05z"/>
			<g>
				<path class="st0" d="M235.29,56.61c88.06,0,159.69,71.64,159.69,159.69S323.35,376,235.29,376S75.6,304.36,75.6,216.3
					S147.24,56.61,235.29,56.61 M235.29,36.8c-99.14,0-179.51,80.37-179.51,179.51s80.37,179.51,179.51,179.51
					S414.8,315.44,414.8,216.3S334.43,36.8,235.29,36.8L235.29,36.8z"/>
			</g>
		</g>
	</g>
</g>
<g id="Layer_6">
</g>
<g id="Layer_7">
</g>
</svg>
