<?xml version="1.0" encoding="utf-8"?>
<!-- Generator: Adobe Illustrator 25.0.0, SVG Export Plug-In . SVG Version: 6.00 Build 0)  -->
<svg version="1.1" xmlns="http://www.w3.org/2000/svg" xmlns:xlink="http://www.w3.org/1999/xlink" x="0px" y="0px"
	 viewBox="0 0 464.35 505.53" style="enable-background:new 0 0 464.35 505.53;" xml:space="preserve">
<style type="text/css">
	.st0{fill:#E50102;}
	.st1{fill:#FFFFFF;}
	.st2{fill:#F0F4C3;}
	.st3{fill:#FFC107;}
	.st4{fill:#1E88E5;}
	.st5{fill:#FFECB3;}
	.st6{fill:#3F51B5;}
	.st7{fill:#A3D866;}
	.st8{fill:#FF7043;}
	.st9{fill:#6D4C41;}
	.st10{fill:#FFD700;}
	.st11{fill:#5DADE2;}
	.st12{fill:#FDF5E6;}
	.st13{fill:#424242;}
	.st14{fill:#FBE134;}
	.st15{fill:#FCF8F1;}
	.st16{fill:#FBF7F0;}
	.st17{fill:#F04243;}
	.st18{clip-path:url(#SVGID_15_);fill:#E50102;}
	.st19{clip-path:url(#SVGID_15_);}
	.st20{clip-path:url(#SVGID_16_);fill:#FFC800;}
	.st21{fill:#754CAD;}
	.st22{opacity:0.6;clip-path:url(#SVGID_18_);fill:url(#);}
	.st23{display:none;fill:#5DADE2;}
	.st24{fill:#F39823;}
	.st25{opacity:0.9;fill:url(#);}
	.st26{fill:#FFC800;}
	.st27{fill:#D678C5;}
	.st28{opacity:0.43;fill:url(#);}
	.st29{opacity:0.33;}
	.st30{filter:url(#Adobe_OpacityMaskFilter);}
	.st31{mask:url(#SVGID_19_);}
	.st32{fill:#7B7B7B;}
	.st33{fill:#562896;}
	.st34{fill:#6436A3;}
	.st35{filter:url(#Adobe_OpacityMaskFilter_1_);}
	.st36{mask:url(#SVGID_20_);}
	.st37{fill:#D4D4D3;}
	.st38{fill:#F1C700;}
	.st39{fill:#ECA00E;}
	.st40{fill:#F3D12E;}
	.st41{fill:#F3CF24;}
	.st42{fill:#F4D869;}
	.st43{fill:#F1D03B;}
	.st44{fill:#67359B;}
	.st45{fill:#5F2B97;}
	.st46{fill:none;stroke:#FFFFFF;stroke-width:0.5;stroke-miterlimit:10;}
	.st47{filter:url(#Adobe_OpacityMaskFilter_2_);}
	.st48{mask:url(#SVGID_21_);}
	.st49{fill:#FFD606;}
	.st50{fill:#FFCB00;}
	.st51{fill:#DBB800;}
	.st52{fill:#F3D633;}
	.st53{filter:url(#Adobe_OpacityMaskFilter_3_);}
	.st54{mask:url(#SVGID_22_);}
	.st55{fill:#EF820A;}
	.st56{opacity:0.45;fill:#EF820A;}
	.st57{filter:url(#Adobe_OpacityMaskFilter_4_);}
	.st58{mask:url(#SVGID_23_);}
	.st59{filter:url(#Adobe_OpacityMaskFilter_5_);}
	.st60{mask:url(#SVGID_24_);}
	.st61{filter:url(#Adobe_OpacityMaskFilter_6_);}
	.st62{mask:url(#SVGID_25_);}
	.st63{filter:url(#Adobe_OpacityMaskFilter_7_);}
	.st64{mask:url(#SVGID_26_);}
	.st65{filter:url(#Adobe_OpacityMaskFilter_8_);}
	.st66{mask:url(#SVGID_27_);}
	.st67{filter:url(#Adobe_OpacityMaskFilter_9_);}
	.st68{mask:url(#SVGID_28_);}
	.st69{filter:url(#Adobe_OpacityMaskFilter_10_);}
	.st70{mask:url(#SVGID_29_);}
	.st71{filter:url(#Adobe_OpacityMaskFilter_11_);}
	.st72{mask:url(#SVGID_30_);}
	.st73{filter:url(#Adobe_OpacityMaskFilter_12_);}
	.st74{mask:url(#SVGID_31_);}
	.st75{filter:url(#Adobe_OpacityMaskFilter_13_);}
	.st76{mask:url(#SVGID_32_);}
	.st77{clip-path:url(#SVGID_34_);fill:#D678C5;}
	.st78{clip-path:url(#SVGID_36_);fill:#FFC800;}
	.st79{opacity:0.25;fill:#68182B;}
	
		.st80{fill:#FFFFFF;stroke:#68182B;stroke-width:3;stroke-linecap:round;stroke-linejoin:round;stroke-miterlimit:10;stroke-dasharray:2,10;}
	.st81{fill:#68182B;}
	.st82{fill:#FF2E60;}
	.st83{fill:#C18957;}
	.st84{fill:#EA0F4D;}
	.st85{fill:#FF6699;}
	.st86{fill:#AF7341;}
	.st87{fill:#E2A97A;}
	.st88{fill:#5CFFCD;}
	.st89{fill:#FFF18A;}
	.st90{fill:#DDA96B;}
	.st91{fill:#F3AF79;}
	.st92{fill:#FFF7CF;}
	.st93{fill:#27D89D;}
	.st94{fill:#D3FFEB;}
	.st95{fill:#FF7A0D;}
	.st96{fill:#EF6200;}
	.st97{fill:#FFB85A;}
	.st98{fill:none;stroke:#FFFFFF;stroke-width:0.5;stroke-linecap:round;stroke-linejoin:round;stroke-miterlimit:10;}
	.st99{clip-path:url(#SVGID_38_);}
	.st100{fill:none;stroke:#FFD700;stroke-width:0.5;stroke-linecap:round;stroke-linejoin:round;stroke-miterlimit:10;}
	.st101{fill:none;stroke:#E50102;stroke-width:0.5;stroke-linecap:round;stroke-linejoin:round;stroke-miterlimit:10;}
	.st102{fill:#A7A9AC;}
	.st103{fill:none;stroke:#2E3192;stroke-width:4;stroke-miterlimit:10;}
	.st104{fill:#2E3192;}
	.st105{fill:none;stroke:#2E3192;stroke-width:4;stroke-linecap:round;stroke-miterlimit:10;}
	.st106{fill:#FFF200;}
	.st107{clip-path:url(#SVGID_50_);}
	.st108{clip-path:url(#SVGID_51_);fill:#FFC800;}
	.st109{opacity:0.6;clip-path:url(#SVGID_53_);fill:url(#);}
	.st110{filter:url(#Adobe_OpacityMaskFilter_14_);}
	.st111{mask:url(#SVGID_54_);}
	.st112{filter:url(#Adobe_OpacityMaskFilter_15_);}
	.st113{mask:url(#SVGID_55_);}
	.st114{filter:url(#Adobe_OpacityMaskFilter_16_);}
	.st115{mask:url(#SVGID_56_);}
	.st116{filter:url(#Adobe_OpacityMaskFilter_17_);}
	.st117{mask:url(#SVGID_57_);}
	.st118{filter:url(#Adobe_OpacityMaskFilter_18_);}
	.st119{mask:url(#SVGID_58_);}
	.st120{filter:url(#Adobe_OpacityMaskFilter_19_);}
	.st121{mask:url(#SVGID_59_);}
	.st122{filter:url(#Adobe_OpacityMaskFilter_20_);}
	.st123{mask:url(#SVGID_60_);}
	.st124{filter:url(#Adobe_OpacityMaskFilter_21_);}
	.st125{mask:url(#SVGID_61_);}
	.st126{filter:url(#Adobe_OpacityMaskFilter_22_);}
	.st127{mask:url(#SVGID_62_);}
	.st128{filter:url(#Adobe_OpacityMaskFilter_23_);}
	.st129{mask:url(#SVGID_63_);}
	.st130{filter:url(#Adobe_OpacityMaskFilter_24_);}
	.st131{mask:url(#SVGID_64_);}
	.st132{filter:url(#Adobe_OpacityMaskFilter_25_);}
	.st133{mask:url(#SVGID_65_);}
	.st134{filter:url(#Adobe_OpacityMaskFilter_26_);}
	.st135{mask:url(#SVGID_66_);}
	.st136{filter:url(#Adobe_OpacityMaskFilter_27_);}
	.st137{mask:url(#SVGID_67_);}
	.st138{filter:url(#Adobe_OpacityMaskFilter_28_);}
	.st139{mask:url(#SVGID_68_);}
	.st140{filter:url(#Adobe_OpacityMaskFilter_29_);}
	.st141{mask:url(#SVGID_69_);}
	.st142{filter:url(#Adobe_OpacityMaskFilter_30_);}
	.st143{mask:url(#SVGID_70_);}
	.st144{filter:url(#Adobe_OpacityMaskFilter_31_);}
	.st145{mask:url(#SVGID_71_);}
	.st146{clip-path:url(#SVGID_73_);}
	.st147{clip-path:url(#SVGID_75_);}
	.st148{fill:none;stroke:#FCF8F1;stroke-width:0.5;stroke-linecap:round;stroke-linejoin:round;stroke-miterlimit:10;}
	.st149{clip-path:url(#SVGID_86_);}
	.st150{display:none;clip-path:url(#SVGID_86_);}
	.st151{display:inline;fill:#EF820A;}
	.st152{display:inline;}
	.st153{clip-path:url(#SVGID_87_);fill:#FFC800;}
	.st154{clip-path:url(#SVGID_89_);}
	.st155{clip-path:url(#SVGID_90_);fill:#FFC800;}
	.st156{clip-path:url(#SVGID_92_);}
	.st157{clip-path:url(#SVGID_93_);fill:#FFC800;}
	.st158{display:none;}
	.st159{clip-path:url(#SVGID_96_);}
	.st160{clip-path:url(#SVGID_97_);fill:#FFC800;}
	.st161{opacity:0.92;fill:#A64895;}
	.st162{display:none;clip-path:url(#SVGID_100_);}
	.st163{clip-path:url(#SVGID_101_);fill:#FFC800;}
	.st164{display:none;clip-path:url(#SVGID_103_);}
	.st165{clip-path:url(#SVGID_104_);fill:#FFC800;}
	.st166{clip-path:url(#SVGID_106_);}
	.st167{clip-path:url(#SVGID_107_);fill:#FFC800;}
	.st168{display:none;clip-path:url(#SVGID_109_);}
	.st169{clip-path:url(#SVGID_110_);fill:#FFC800;}
</style>
<g id="Layer_1">
</g>
<g id="Layer_2">
</g>
<g id="Layer_3">
</g>
<g id="Layer_4">
</g>
<g id="Layer_5">
</g>
<g id="Layer_8">
	<g>
		<g>
			<g>
				<path class="st0" d="M18.2,399.17l-3.34,17.64H8.75l-3.81-23.1h4.99l2.22,16.57l3.1-16.57h5.94l3.1,16.57l2.21-16.57h4.99
					l-3.81,23.1h-6.14L18.2,399.17z"/>
				<path class="st0" d="M52.73,393.7v23.04h-4.79v-9.69h-6.71v9.69h-4.79V393.7h4.79v9.22h6.71v-9.22H52.73z"/>
				<path class="st0" d="M58.28,405.81v-1.18c0-7.98,2.81-11.31,8.77-11.31c6,0,8.8,3.34,8.8,11.31v1.18
					c0,7.98-2.81,11.31-8.8,11.31C61.09,417.13,58.28,413.79,58.28,405.81z M67.2,412.99c2.95,0,3.78-2.57,3.78-7.18v-1.18
					c0-4.61-0.83-7.18-3.78-7.18h-0.27c-2.95,0-3.81,2.57-3.81,7.18v1.18c0,4.61,0.86,7.18,3.81,7.18H67.2z"/>
				<path class="st0" d="M81.41,416.74V393.7h4.79v18.91h8.51v4.14H81.41z"/>
				<path class="st0" d="M113.64,393.7v4.14h-9.31v5.08h7.83v4.14h-7.83v5.55h9.31v4.14H99.55V393.7H113.64z"/>
				<path class="st0" d="M118.75,400.5v-0.33c0-4.17,2.87-6.85,8.12-6.85c5.67,0,8.15,2.51,8.15,7.92v0.62h-4.79
					c0-3.01-0.92-4.4-3.34-4.4h-0.27c-1.92,0-3.04,1.06-3.04,2.54v0.15c0,1.68,0.68,2.57,4.05,3.01c5.02,0.68,7.56,2.39,7.56,6.68
					v0.3c0,4.43-2.92,7-8.33,7c-5.44,0-8.3-2.42-8.3-7.98v-0.27h4.79c0,2.9,1.18,4.11,3.4,4.11h0.27c2.22,0,3.31-1.18,3.31-2.72
					v-0.15c0-1.65-0.86-2.57-4.19-3.01C121.11,406.44,118.75,404.66,118.75,400.5z"/>
				<path class="st0" d="M151.36,393.64l5.76,23.1h-5.11l-1.12-4.96h-5.64l-1.09,4.96h-5.14l5.76-23.1H151.36z M146.16,407.65h3.78
					l-1.89-8.48L146.16,407.65z"/>
				<path class="st0" d="M161.93,416.74V393.7h4.79v18.91h8.51v4.14H161.93z"/>
				<path class="st0" d="M194.16,393.7v4.14h-9.31v5.08h7.83v4.14h-7.83v5.55h9.31v4.14h-14.09V393.7H194.16z"/>
				<path class="st0" d="M204.53,416.74h-4.79V393.7h7.56c3.75,0,8.01,0.97,8.01,7.09v0.59c0,3.72-1.57,5.55-3.63,6.41l3.63,8.95
					h-5.17l-3.16-8.27h-2.45V416.74z M207.51,404.34c1.3,0,2.95-0.5,2.95-3.1v-0.3c0-2.6-1.65-3.1-2.95-3.1h-2.98v6.5H207.51z"/>
				<path class="st0" d="M220.42,400.5v-0.33c0-4.17,2.87-6.85,8.12-6.85c5.67,0,8.15,2.51,8.15,7.92v0.62h-4.79
					c0-3.01-0.92-4.4-3.34-4.4h-0.27c-1.92,0-3.04,1.06-3.04,2.54v0.15c0,1.68,0.68,2.57,4.05,3.01c5.02,0.68,7.56,2.39,7.56,6.68
					v0.3c0,4.43-2.92,7-8.33,7c-5.44,0-8.3-2.42-8.3-7.98v-0.27h4.79c0,2.9,1.18,4.11,3.4,4.11h0.27c2.22,0,3.31-1.18,3.31-2.72
					v-0.15c0-1.65-0.86-2.57-4.2-3.01C222.78,406.44,220.42,404.66,220.42,400.5z"/>
				<path class="st0" d="M258,416.74h-7.06V393.7H258c6.85,0,9.72,2.95,9.72,10.93v1.18C267.71,413.79,264.85,416.74,258,416.74z
					 M257.73,412.61c3.99,0,5.11-2.19,5.11-6.79v-1.18c0-4.61-1.12-6.79-5.11-6.79h-2.01v14.77H257.73z"/>
				<path class="st0" d="M278.2,416.74h-4.79V393.7h4.79V416.74z"/>
				<path class="st0" d="M283.9,400.5v-0.33c0-4.17,2.87-6.85,8.12-6.85c5.67,0,8.15,2.51,8.15,7.92v0.62h-4.79
					c0-3.01-0.92-4.4-3.34-4.4h-0.27c-1.92,0-3.04,1.06-3.04,2.54v0.15c0,1.68,0.68,2.57,4.05,3.01c5.02,0.68,7.56,2.39,7.56,6.68
					v0.3c0,4.43-2.92,7-8.33,7c-5.44,0-8.3-2.42-8.3-7.98v-0.27h4.79c0,2.9,1.18,4.11,3.4,4.11h0.27c2.22,0,3.31-1.18,3.31-2.72
					v-0.15c0-1.65-0.86-2.57-4.19-3.01C286.26,406.44,283.9,404.66,283.9,400.5z"/>
				<path class="st0" d="M314.71,416.74h-4.79v-18.91h-5.32v-4.14h15.45v4.14h-5.35V416.74z"/>
				<path class="st0" d="M329.75,416.74h-4.79V393.7h7.56c3.75,0,8.01,0.97,8.01,7.09v0.59c0,3.72-1.57,5.55-3.63,6.41l3.63,8.95
					h-5.17l-3.16-8.27h-2.45V416.74z M332.73,404.34c1.3,0,2.95-0.5,2.95-3.1v-0.3c0-2.6-1.65-3.1-2.95-3.1h-2.98v6.5H332.73z"/>
				<path class="st0" d="M351.04,416.74h-4.79V393.7h4.79V416.74z"/>
				<path class="st0" d="M364.78,393.7c3.6,0,7.42,0.97,7.42,6.38v0.59c0,2.1-0.92,3.4-2.25,4.17c1.65,0.8,2.84,2.22,2.84,4.7v0.59
					c0,5.61-4.05,6.62-7.77,6.62h-7.8V393.7H364.78z M362,397.84v5.05h2.75c1.24,0,2.6-0.44,2.6-2.33v-0.38
					c0-1.89-1.36-2.33-2.6-2.33H362z M362,407.06v5.55h3.16c1.33,0,2.78-0.56,2.78-2.66v-0.27c0-2.1-1.45-2.63-2.78-2.63H362z"/>
				<path class="st0" d="M378.45,409.45V393.7h4.79v15.6c0,2.45,0.77,3.69,3.49,3.69s3.52-1.24,3.52-3.69v-15.6h4.79v15.75
					c0,5.02-2.04,7.68-8.3,7.68S378.45,414.47,378.45,409.45z"/>
				<path class="st0" d="M409.88,416.74h-4.79v-18.91h-5.32v-4.14h15.45v4.14h-5.35V416.74z"/>
				<path class="st0" d="M434.22,393.7v4.14h-9.31v5.08h7.83v4.14h-7.83v5.55h9.31v4.14h-14.09V393.7H434.22z"/>
				<path class="st0" d="M446.87,416.74h-7.06V393.7h7.06c6.85,0,9.72,2.95,9.72,10.93v1.18
					C456.59,413.79,453.72,416.74,446.87,416.74z M446.6,412.61c3.99,0,5.11-2.19,5.11-6.79v-1.18c0-4.61-1.12-6.79-5.11-6.79h-2.01
					v14.77H446.6z"/>
			</g>
		</g>
		<g>
			<path class="st0" d="M228.18,115.18c65.64,0,119.05,53.4,119.05,119.05s-53.4,119.05-119.05,119.05s-119.05-53.4-119.05-119.05
				S162.54,115.18,228.18,115.18 M228.18,100.41c-73.9,0-133.82,59.91-133.82,133.82s59.91,133.82,133.82,133.82
				S362,308.13,362,234.22S302.08,100.41,228.18,100.41L228.18,100.41z"/>
		</g>
		<g>
			<path class="st17" d="M234.93,295.48c-3.73-10.16,1.46-21.4,11.62-25.14c10.13-3.73,21.41,1.49,25.14,11.62
				c3.73,10.16-1.46,21.4-11.62,25.14C249.93,310.83,238.65,305.61,234.93,295.48z M249.52,278.42c-5.69,2.09-8.61,8.39-6.51,14.08
				c2.09,5.68,8.41,8.6,14.08,6.51c5.69-2.09,8.61-8.39,6.51-14.08C261.51,279.25,255.19,276.34,249.52,278.42z"/>
			<path class="st17" d="M221.61,304.68c-0.62,0-1.23-0.13-1.81-0.4c-1.04-0.48-1.84-1.35-2.23-2.42l-44.19-120.2l-8.59,3.16
				c-2.23,0.82-4.71-0.32-5.53-2.56c-0.82-2.23,0.32-4.71,2.55-5.53l12.63-4.64c1.07-0.39,2.26-0.35,3.29,0.13
				c1.04,0.48,1.84,1.35,2.23,2.42l44.19,120.2l2.26-0.83c2.23-0.82,4.71,0.32,5.53,2.55c0.82,2.23-0.32,4.71-2.55,5.53l-6.31,2.32
				C222.62,304.59,222.12,304.68,221.61,304.68z"/>
			<path class="st17" d="M273.2,281.49c-0.86-2.22,0.24-4.71,2.46-5.57l15.84-6.14c2.21-0.86,4.71,0.24,5.57,2.46
				c0.86,2.22-0.24,4.71-2.46,5.57l-15.84,6.14C276.55,284.81,274.06,283.7,273.2,281.49z"/>
			<path class="st17" d="M256.03,214.38l-47.17,17.34c-1.89,0.69-3.98-0.27-4.68-2.16l-17.34-47.17c-0.69-1.89,0.27-3.99,2.16-4.68
				l47.17-17.34c1.89-0.69,3.98,0.27,4.68,2.16l17.34,47.17C258.89,211.59,257.92,213.69,256.03,214.38z"/>
			<path class="st17" d="M257.02,217.07l-47.17,17.34c-1.89,0.69-2.86,2.79-2.16,4.68l17.34,47.17c0.69,1.89,2.79,2.86,4.68,2.16
				l0.16-0.06c0.15-9.41,5.98-18.2,15.35-21.64c9.36-3.44,19.5-0.53,25.71,6.55l5.95-2.19c1.89-0.69,2.86-2.79,2.16-4.68
				l-17.34-47.17C261,217.34,258.91,216.38,257.02,217.07z"/>
		</g>
	</g>
</g>
<g id="Layer_6">
</g>
<g id="Layer_7">
</g>
</svg>
