<?xml version="1.0" encoding="utf-8"?>
<!-- Generator: Adobe Illustrator 25.0.0, SVG Export Plug-In . SVG Version: 6.00 Build 0)  -->
<svg version="1.1" xmlns="http://www.w3.org/2000/svg" xmlns:xlink="http://www.w3.org/1999/xlink" x="0px" y="0px"
	 viewBox="0 0 464.35 505.53" style="enable-background:new 0 0 464.35 505.53;" xml:space="preserve">
<style type="text/css">
	.st0{fill:#E50102;}
	.st1{fill:#FFFFFF;}
	.st2{fill:#F0F4C3;}
	.st3{fill:#FFC107;}
	.st4{fill:#1E88E5;}
	.st5{fill:#FFECB3;}
	.st6{fill:#3F51B5;}
	.st7{fill:#A3D866;}
	.st8{fill:#FF7043;}
	.st9{fill:#6D4C41;}
	.st10{fill:#FFD700;}
	.st11{fill:#5DADE2;}
	.st12{fill:#FDF5E6;}
	.st13{fill:#424242;}
	.st14{fill:#FBE134;}
	.st15{fill:#FCF8F1;}
	.st16{fill:#FBF7F0;}
	.st17{fill:#F04243;}
	.st18{clip-path:url(#SVGID_15_);fill:#E50102;}
	.st19{clip-path:url(#SVGID_15_);}
	.st20{clip-path:url(#SVGID_16_);fill:#FFC800;}
	.st21{fill:#754CAD;}
	.st22{opacity:0.6;clip-path:url(#SVGID_18_);fill:url(#);}
	.st23{display:none;fill:#5DADE2;}
	.st24{fill:#F39823;}
	.st25{opacity:0.9;fill:url(#);}
	.st26{fill:#FFC800;}
	.st27{fill:#D678C5;}
	.st28{opacity:0.43;fill:url(#);}
	.st29{opacity:0.33;}
	.st30{filter:url(#Adobe_OpacityMaskFilter);}
	.st31{mask:url(#SVGID_19_);}
	.st32{fill:#7B7B7B;}
	.st33{fill:#562896;}
	.st34{fill:#6436A3;}
	.st35{filter:url(#Adobe_OpacityMaskFilter_1_);}
	.st36{mask:url(#SVGID_20_);}
	.st37{fill:#D4D4D3;}
	.st38{fill:#F1C700;}
	.st39{fill:#ECA00E;}
	.st40{fill:#F3D12E;}
	.st41{fill:#F3CF24;}
	.st42{fill:#F4D869;}
	.st43{fill:#F1D03B;}
	.st44{fill:#67359B;}
	.st45{fill:#5F2B97;}
	.st46{fill:none;stroke:#FFFFFF;stroke-width:0.5;stroke-miterlimit:10;}
	.st47{filter:url(#Adobe_OpacityMaskFilter_2_);}
	.st48{mask:url(#SVGID_21_);}
	.st49{fill:#FFD606;}
	.st50{fill:#FFCB00;}
	.st51{fill:#DBB800;}
	.st52{fill:#F3D633;}
	.st53{filter:url(#Adobe_OpacityMaskFilter_3_);}
	.st54{mask:url(#SVGID_22_);}
	.st55{fill:#EF820A;}
	.st56{opacity:0.45;fill:#EF820A;}
	.st57{filter:url(#Adobe_OpacityMaskFilter_4_);}
	.st58{mask:url(#SVGID_23_);}
	.st59{filter:url(#Adobe_OpacityMaskFilter_5_);}
	.st60{mask:url(#SVGID_24_);}
	.st61{filter:url(#Adobe_OpacityMaskFilter_6_);}
	.st62{mask:url(#SVGID_25_);}
	.st63{filter:url(#Adobe_OpacityMaskFilter_7_);}
	.st64{mask:url(#SVGID_26_);}
	.st65{filter:url(#Adobe_OpacityMaskFilter_8_);}
	.st66{mask:url(#SVGID_27_);}
	.st67{filter:url(#Adobe_OpacityMaskFilter_9_);}
	.st68{mask:url(#SVGID_28_);}
	.st69{filter:url(#Adobe_OpacityMaskFilter_10_);}
	.st70{mask:url(#SVGID_29_);}
	.st71{filter:url(#Adobe_OpacityMaskFilter_11_);}
	.st72{mask:url(#SVGID_30_);}
	.st73{filter:url(#Adobe_OpacityMaskFilter_12_);}
	.st74{mask:url(#SVGID_31_);}
	.st75{filter:url(#Adobe_OpacityMaskFilter_13_);}
	.st76{mask:url(#SVGID_32_);}
	.st77{clip-path:url(#SVGID_34_);fill:#D678C5;}
	.st78{clip-path:url(#SVGID_36_);fill:#FFC800;}
	.st79{opacity:0.25;fill:#68182B;}
	
		.st80{fill:#FFFFFF;stroke:#68182B;stroke-width:3;stroke-linecap:round;stroke-linejoin:round;stroke-miterlimit:10;stroke-dasharray:2,10;}
	.st81{fill:#68182B;}
	.st82{fill:#FF2E60;}
	.st83{fill:#C18957;}
	.st84{fill:#EA0F4D;}
	.st85{fill:#FF6699;}
	.st86{fill:#AF7341;}
	.st87{fill:#E2A97A;}
	.st88{fill:#5CFFCD;}
	.st89{fill:#FFF18A;}
	.st90{fill:#DDA96B;}
	.st91{fill:#F3AF79;}
	.st92{fill:#FFF7CF;}
	.st93{fill:#27D89D;}
	.st94{fill:#D3FFEB;}
	.st95{fill:#FF7A0D;}
	.st96{fill:#EF6200;}
	.st97{fill:#FFB85A;}
	.st98{fill:none;stroke:#FFFFFF;stroke-width:0.5;stroke-linecap:round;stroke-linejoin:round;stroke-miterlimit:10;}
	.st99{clip-path:url(#SVGID_38_);}
	.st100{fill:none;stroke:#FFD700;stroke-width:0.5;stroke-linecap:round;stroke-linejoin:round;stroke-miterlimit:10;}
	.st101{fill:none;stroke:#E50102;stroke-width:0.5;stroke-linecap:round;stroke-linejoin:round;stroke-miterlimit:10;}
	.st102{fill:#A7A9AC;}
	.st103{fill:none;stroke:#2E3192;stroke-width:4;stroke-miterlimit:10;}
	.st104{fill:#2E3192;}
	.st105{fill:none;stroke:#2E3192;stroke-width:4;stroke-linecap:round;stroke-miterlimit:10;}
	.st106{fill:#FFF200;}
	.st107{clip-path:url(#SVGID_50_);}
	.st108{clip-path:url(#SVGID_51_);fill:#FFC800;}
	.st109{opacity:0.6;clip-path:url(#SVGID_53_);fill:url(#);}
	.st110{filter:url(#Adobe_OpacityMaskFilter_14_);}
	.st111{mask:url(#SVGID_54_);}
	.st112{filter:url(#Adobe_OpacityMaskFilter_15_);}
	.st113{mask:url(#SVGID_55_);}
	.st114{filter:url(#Adobe_OpacityMaskFilter_16_);}
	.st115{mask:url(#SVGID_56_);}
	.st116{filter:url(#Adobe_OpacityMaskFilter_17_);}
	.st117{mask:url(#SVGID_57_);}
	.st118{filter:url(#Adobe_OpacityMaskFilter_18_);}
	.st119{mask:url(#SVGID_58_);}
	.st120{filter:url(#Adobe_OpacityMaskFilter_19_);}
	.st121{mask:url(#SVGID_59_);}
	.st122{filter:url(#Adobe_OpacityMaskFilter_20_);}
	.st123{mask:url(#SVGID_60_);}
	.st124{filter:url(#Adobe_OpacityMaskFilter_21_);}
	.st125{mask:url(#SVGID_61_);}
	.st126{filter:url(#Adobe_OpacityMaskFilter_22_);}
	.st127{mask:url(#SVGID_62_);}
	.st128{filter:url(#Adobe_OpacityMaskFilter_23_);}
	.st129{mask:url(#SVGID_63_);}
	.st130{filter:url(#Adobe_OpacityMaskFilter_24_);}
	.st131{mask:url(#SVGID_64_);}
	.st132{filter:url(#Adobe_OpacityMaskFilter_25_);}
	.st133{mask:url(#SVGID_65_);}
	.st134{filter:url(#Adobe_OpacityMaskFilter_26_);}
	.st135{mask:url(#SVGID_66_);}
	.st136{filter:url(#Adobe_OpacityMaskFilter_27_);}
	.st137{mask:url(#SVGID_67_);}
	.st138{filter:url(#Adobe_OpacityMaskFilter_28_);}
	.st139{mask:url(#SVGID_68_);}
	.st140{filter:url(#Adobe_OpacityMaskFilter_29_);}
	.st141{mask:url(#SVGID_69_);}
	.st142{filter:url(#Adobe_OpacityMaskFilter_30_);}
	.st143{mask:url(#SVGID_70_);}
	.st144{filter:url(#Adobe_OpacityMaskFilter_31_);}
	.st145{mask:url(#SVGID_71_);}
	.st146{clip-path:url(#SVGID_73_);}
	.st147{clip-path:url(#SVGID_75_);}
	.st148{fill:none;stroke:#FCF8F1;stroke-width:0.5;stroke-linecap:round;stroke-linejoin:round;stroke-miterlimit:10;}
	.st149{clip-path:url(#SVGID_86_);}
	.st150{display:none;clip-path:url(#SVGID_86_);}
	.st151{display:inline;fill:#EF820A;}
	.st152{display:inline;}
	.st153{clip-path:url(#SVGID_87_);fill:#FFC800;}
	.st154{clip-path:url(#SVGID_89_);}
	.st155{clip-path:url(#SVGID_90_);fill:#FFC800;}
	.st156{clip-path:url(#SVGID_92_);}
	.st157{clip-path:url(#SVGID_93_);fill:#FFC800;}
	.st158{display:none;}
	.st159{clip-path:url(#SVGID_96_);}
	.st160{clip-path:url(#SVGID_97_);fill:#FFC800;}
	.st161{opacity:0.92;fill:#A64895;}
	.st162{display:none;clip-path:url(#SVGID_100_);}
	.st163{clip-path:url(#SVGID_101_);fill:#FFC800;}
	.st164{display:none;clip-path:url(#SVGID_103_);}
	.st165{clip-path:url(#SVGID_104_);fill:#FFC800;}
	.st166{clip-path:url(#SVGID_106_);}
	.st167{clip-path:url(#SVGID_107_);fill:#FFC800;}
	.st168{display:none;clip-path:url(#SVGID_109_);}
	.st169{clip-path:url(#SVGID_110_);fill:#FFC800;}
</style>
<g id="Layer_1">
</g>
<g id="Layer_2">
</g>
<g id="Layer_3">
</g>
<g id="Layer_4">
</g>
<g id="Layer_5">
</g>
<g id="Layer_8">
	<g>
		<g>
			<path class="st0" d="M232.17,91.53c88.91,0,161.24,72.33,161.24,161.24S321.08,414,232.17,414S70.94,341.67,70.94,252.77
				S143.27,91.53,232.17,91.53 M232.17,71.52c-100.1,0-181.24,81.14-181.24,181.24s81.14,181.24,181.24,181.24
				s181.24-81.14,181.24-181.24S332.27,71.52,232.17,71.52L232.17,71.52z"/>
		</g>
		<g>
			<path class="st17" d="M241.31,335.73c-5.06-13.76,1.98-28.98,15.74-34.04c13.73-5.05,29,2.02,34.04,15.74
				c5.06,13.76-1.98,28.99-15.74,34.04C261.63,356.52,246.36,349.45,241.31,335.73z M261.08,312.63
				c-7.71,2.83-11.66,11.37-8.82,19.08c2.83,7.69,11.39,11.65,19.08,8.82c7.71-2.83,11.66-11.37,8.82-19.08
				C277.32,313.75,268.76,309.8,261.08,312.63z"/>
			<path class="st17" d="M223.28,348.19c-0.84,0-1.67-0.18-2.45-0.54c-1.4-0.65-2.49-1.83-3.03-3.28l-59.85-162.8l-11.64,4.28
				c-3.02,1.11-6.37-0.44-7.48-3.46c-1.11-3.02,0.44-6.37,3.46-7.48l17.11-6.29c1.45-0.53,3.05-0.47,4.46,0.18
				c1.4,0.65,2.49,1.83,3.03,3.28l59.85,162.8l3.07-1.13c3.02-1.11,6.37,0.44,7.48,3.46c1.11,3.02-0.44,6.37-3.46,7.48l-8.54,3.14
				C224.64,348.07,223.96,348.19,223.28,348.19z"/>
			<path class="st17" d="M293.15,316.78c-1.16-3,0.33-6.38,3.33-7.54l21.45-8.32c3-1.16,6.38,0.33,7.54,3.33
				c1.16,3-0.33,6.38-3.33,7.54l-21.45,8.32C297.68,321.28,294.31,319.77,293.15,316.78z"/>
			<path class="st17" d="M269.9,225.89l-63.89,23.49c-2.56,0.94-5.4-0.37-6.34-2.93l-23.49-63.89c-0.94-2.56,0.37-5.4,2.93-6.34
				L243,152.73c2.56-0.94,5.4,0.37,6.34,2.93l23.49,63.89C273.77,222.11,272.46,224.95,269.9,225.89z"/>
			<path class="st17" d="M271.23,229.53l-63.89,23.49c-2.56,0.94-3.87,3.78-2.93,6.34l23.49,63.89c0.94,2.56,3.78,3.87,6.34,2.93
				l0.22-0.08c0.2-12.75,8.11-24.65,20.79-29.31c12.68-4.66,26.42-0.72,34.82,8.87l8.06-2.96c2.56-0.94,3.87-3.78,2.93-6.34
				l-23.49-63.89C276.63,229.9,273.79,228.59,271.23,229.53z"/>
		</g>
	</g>
</g>
<g id="Layer_6">
</g>
<g id="Layer_7">
</g>
</svg>
